<?xml version="1.0" encoding="utf-8"?>
<!-- Generator: Adobe Illustrator 26.2.1, SVG Export Plug-In . SVG Version: 6.00 Build 0)  -->
<svg version="1.1" id="Capa_1" xmlns="http://www.w3.org/2000/svg" xmlns:xlink="http://www.w3.org/1999/xlink" x="0px" y="0px"
	 viewBox="0 0 390.9 375.8" style="enable-background:new 0 0 390.9 375.8;" xml:space="preserve">
<style type="text/css">
	.st0{fill:#58A5DC;}
	.st1{fill:#3281C3;}
	.st2{fill:#5CA8DD;}
	.st3{fill:#2D7CC0;}
	.st4{fill:#317FC2;}
	.st5{fill:#3F92D0;}
	.st6{fill:#60AADF;}
	.st7{fill:#63ADE0;}
	.st8{fill:#4496D2;}
	.st9{fill:#2B7ABF;}
	.st10{fill:#3B8ECD;}
	.st11{fill:#499AD5;}
	.st12{fill:#388BCB;}
	.st13{fill:#388ACA;}
	.st14{fill:#3D90CE;}
	.st15{fill:#3788C9;}
	.st16{fill:#3688C9;}
	.st17{fill:#4C9DD7;}
	.st18{fill:#4C9DD6;}
	.st19{fill:#3385C6;}
	.st20{fill:#52A2D9;}
	.st21{fill:#51A0D8;}
	.st22{fill:#509FD8;}
	.st23{fill:#3385C7;}
	.st24{fill:#3383C5;}
	.st25{fill:#53A2DA;}
	.st26{fill:#68B0E2;}
	.st27{fill:#FFFFFF;}
	.st28{fill:#55A3DA;}
	.st29{fill:#3284C5;}
	.st30{fill:#51A0D9;}
	.st31{fill:#3688C8;}
	.st32{fill:#4294D1;}
	.st33{fill:#50A0D8;}
	.st34{fill:#4B9BD5;}
	.st35{fill:#4D9ED7;}
	.st36{fill:#52A1D9;}
	.st37{fill:#4799D4;}
	.st38{fill:#4699D4;}
	.st39{fill:#3B8CCC;}
	.st40{fill:#54A2DA;}
	.st41{fill:#3B8DCC;}
</style>
<g>
	<path class="st0" d="M96.4,326.8c-6.3-4-12.1-8.6-17.3-13.8c-0.9-2-1.1-4-1.1-6.2c0-80.8,0-161.7,0-242.5c0-2.1,0.2-4.2,1.1-6.2
		c5.5-5.3,11.4-10.2,18-14.2c1.5,1.5,1.2,3.5,1.2,5.3c0,9.7,0,19.4,0,29.1c0,2.2,0,4.5,0.5,6.7c0.5,1.6-0.6,2.5-1.5,3.6
		c-7.6,9.4-8.1,18.3-1.5,28.4c0.9,1.3,2,2.6,1.6,4.4c-0.5,2.5-0.6,4.9-0.6,7.4c0,37.7,0,75.5,0,113.2c0,2.5,0,5,0.6,7.4
		c0.5,2.1-0.8,3.6-1.8,5.1c-5.3,8.4-5.1,17.6,0.7,25.5c0.9,1.3,2.2,2.5,1.9,4.3c0,12.3,0,24.5,0,36.7
		C98.2,323.2,98.8,325.5,96.4,326.8z"/>
	<path class="st1" d="M313.9,309c-5.9,6.4-12.6,11.8-19.9,16.6c-2.9-0.2-2.7-2.5-2.7-4.4c-0.2-5.9-0.1-11.9-0.1-17.8
		c0.1-6.8-0.3-13.6,0.2-20.4c0.1-1.1,0.6-2.2,1.2-3c3.8-5.2,5-10.9,4-17.2c-0.1-0.8-0.1-1.7,0-2.6c-0.3-49.9-0.2-99.7,0-149.5
		c0.3-4.4,0.2-8.7,0.1-13.1c0.3-1.5,0.5-2.9,0.5-4.4c0-12.3,0-24.6,0-36.9c0-1.5-0.1-3,0.3-4.4c0.3-1.3,0.8-2.5,2.6-1.7
		c5.1,3.5,9.8,7.5,13.8,12.1c0.6,2.1,0.7,4.2,0.7,6.3c0,78.1,0,156.2,0,234.2C314.6,304.8,314.5,306.9,313.9,309z"/>
	<path class="st2" d="M79.1,58.1c0,1.1,0.1,2.2,0.1,3.4c0,82.7,0,165.4,0,248.1c0,1.1-0.1,2.2-0.1,3.4c-6.5-5.2-12.1-11.4-17.2-18
		c-1-1.9-1.2-4-1.2-6.2c0-68.8,0-137.7,0-206.5c0-2.1,0.2-4.2,1.2-6.2C67,69.5,72.6,63.4,79.1,58.1z"/>
	<path class="st3" d="M328.2,77.9c8.7,9.9,15.5,21,21,32.9c-0.8,1.6-0.2,3.2-0.2,4.8c-0.1,46.7-0.1,93.4,0,140.1
		c0,1.6-0.6,3.2,0.2,4.8c-5.5,11.9-12.4,22.9-20.9,32.9c-1.2,0-1.4-0.9-1.6-1.7c-0.3-1.1-0.3-2.2-0.3-3.3c0-68.4,0-136.8,0-205.2
		C326.4,81.2,325.8,79,328.2,77.9z"/>
	<path class="st4" d="M328.2,77.9c-1,1.2-0.6,2.6-0.6,3.9c0,69.2,0,138.4,0,207.6c0,1.3-0.5,2.8,0.7,3.9
		c-4.3,5.7-8.9,11.1-14.4,15.7c-0.9-1.2-0.5-2.6-0.5-4c0-79.6,0-159.2,0-238.8c0-1.3-0.4-2.8,0.5-4C319.4,66.8,324.2,72,328.2,77.9z
		"/>
	<path class="st5" d="M204.9,357.1c-8,1-16,0.9-24-0.2c-1.1-1.2-1.2-2.7-1.2-4.2c0-39.6-0.1-79.2,0-118.8c0-0.4,0.1-0.7,0.1-1.1
		c0.1-1.7,0.9-3,2.1-4.2c3.1-3.2,6.3-6.3,9.5-9.5c1.9-2,3.7-2.2,5.7-0.1c2.6,2.7,5.3,5.2,7.9,7.9c1.2,1.2,2.1,2.5,1.3,4.3
		c-0.3,2.5-0.3,5-0.3,7.5c0,37.2,0,74.4,0,111.6C206.1,352.5,206.5,355,204.9,357.1z"/>
	<path class="st5" d="M181.7,14.2c8-1.1,16-1.2,24.1-0.1c0.4,1.3,0.4,2.7,0.3,4.1c0,38.4,0,76.7,0,115.1c0,2.2,0.1,4.5,0.3,6.7
		c0.7,1.6,0.1,2.9-1,4c-2.8,3-5.7,5.9-8.7,8.7c-1.4,1.3-2.8,1.5-4.3,0.2c-3.8-3.6-7.5-7.2-11-11c-0.9-0.9-1.2-2.1-1.1-3.4
		c0.3-2.7,0.3-5.5,0.3-8.2c0-36.5,0-73,0-109.5C180.5,18.5,180.1,16.2,181.7,14.2z"/>
	<path class="st6" d="M61.9,76.1c0,20.7,0.1,41.4,0.1,62.1c0,52.2,0,104.5-0.1,156.7c-5.5-6-10.1-12.6-14.1-19.7
		c-0.4-2.2-0.5-4.4-0.5-6.7c0-55.2,0-110.4,0-165.7c0-2.8,0-5.5,1.2-8.1C52.2,88.1,56.7,81.9,61.9,76.1z"/>
	<path class="st7" d="M48.4,94.9c0,58.9,0,117.9,0.1,176.8c0,1.3-0.1,2.5-0.7,3.6c-8-12.6-14.1-25.9-18-40.3c0.4-3.4-0.5-6.6-0.5-10
		c0.1-26.3,0.1-52.5,0-78.8c0-3.4,0.7-6.7,0.5-10c3.2-12.6,8.7-24.1,14.9-35.4C45.8,98.8,46.6,96.5,48.4,94.9z"/>
	<path class="st8" d="M181.7,14.2c0,39.9,0,79.7,0,119.6c0,2.1-0.2,4.2-0.8,6.2c-1.6,0.2-2.5-1-3.4-1.9c-4.3-4.3-8.6-8.6-12.9-12.9
		c-1.3-1.3-2.5-2.8-2.6-4.8c-0.3-3-0.2-6-0.2-9c0-29.5,0-59,0-88.5c0-2.2-0.5-4.5,1.2-6.4C169.1,15.2,175.3,14.2,181.7,14.2z"/>
	<path class="st8" d="M180.9,231.1c0,41.9,0,83.9,0,125.8c-6.1,0.1-12-1-18-2.3c-1.2-1.2-1.2-2.7-1.2-4.2c0-32.8-0.1-65.7,0-98.5
		c0-0.4,0.1-0.7,0.1-1.1c0.1-1.6,0.8-2.9,1.8-4c4.8-4.9,9.6-9.7,14.5-14.5C179,231.6,179.7,230.8,180.9,231.1z"/>
	<path class="st9" d="M349.2,260.4c-1.5-0.8-1.4-2.2-1.4-3.6c0-47.5,0-95,0-142.5c0-1.4-0.1-2.8,1.4-3.6
		C372.5,160.6,372.5,210.5,349.2,260.4z"/>
	<path class="st10" d="M232,353.3c-5.9,1.7-11.9,2.8-18,3c-1.8-0.1-1.7-1.5-1.9-2.7c-0.3-1.5-0.1-3-0.1-4.5c0-34.9,0-69.8,0-104.7
		c0-2.1-0.2-4.2,0.5-6.3c1.2-2,2.6-1,3.7-0.1c5.3,4.7,10.1,9.8,15,14.9c0.9,1,1.3,2.1,0.6,3.4c-0.4,5.3-0.2,10.7-0.2,16
		c0,22.6,0,45.2,0,67.9C231.5,344.6,231.4,348.9,232,353.3z"/>
	<path class="st11" d="M162.9,249c0,35.2,0,70.4,0,105.5c-6.4-0.8-12.6-2.5-18.7-4.5c-1-1.1-1.2-2.4-1.2-3.8
		c0-25.6-0.2-51.2,0.1-76.8c0.1-1.6,0.8-2.9,1.8-4c5-5.2,10.1-10.2,15.3-15.3C161,249.5,161.8,248.8,162.9,249z"/>
	<path class="st12" d="M232,353.3c-1.7-0.7-1.7-2.3-1.7-3.8c0-30.5,0-60.9,0-91.4c0-1.2-0.4-2.6,1.4-3c2.6,1,4.5,2.9,6.5,4.8
		c3.6,3.4,7,7,10.5,10.5c1.3,1.3,2.5,2.7,2.2,4.8c0.1,23.1,0,46.3,0.1,69.4c0,1.1-0.1,2.2-0.4,3.3
		C244.6,350.5,238.4,352.2,232,353.3z"/>
	<path class="st11" d="M163,16.6c0,35.2,0,70.3,0,105.5c-1.5,0.2-2.3-0.8-3.1-1.7c-4.5-4.4-9-8.9-13.4-13.4
		c-1.3-1.3-2.2-2.7-2.4-4.5c-0.4-11.3-0.1-22.7-0.2-34c-0.1-13.9,0-27.9,0-41.8c0-2-0.3-4,1.2-5.7C150.8,18.8,156.8,17.4,163,16.6z"
		/>
	<path class="st13" d="M231.9,17.8c6.4,1.4,12.8,2.5,18.8,5.3c0.4,1.5,0.3,2.9,0.3,4.4c0,20.7,0,41.4,0,62.2c0,1.9,0.1,3.7,0.3,5.6
		c0.7,1.6-0.1,2.9-1.1,4c-4.7,4.8-9.3,9.6-14.3,14.1c-1.2,1.1-2.6,3-4.8,1.4c-1.3-1.6-1.2-3.5-1.2-5.4c0-28.5,0-57,0-85.5
		C229.9,21.8,229.7,19.4,231.9,17.8z"/>
	<path class="st10" d="M231.9,17.8c-0.6,2-0.8,4.1-0.8,6.2c0,28.8,0,57.7,0,86.5c0,1.7-0.6,3.6,1.4,4.7c-3,6.3-8.3,10.3-13.7,14.3
		c-0.6,0.5-1.4,0-2-0.6c-1.2-1.6-1.1-3.5-1.1-5.4c0-34.1,0-68.1,0-102.2c0-5.2,0.6-5.9,4.3-5.7C224.1,15.8,228,16.6,231.9,17.8z"/>
	<path class="st14" d="M220,15.7c-2.4-0.1-3.2,1.1-3.2,3.5c0,35.7,0,71.4,0,107.1c0,1.3,0.1,2.5,1.4,3.2c0.4,0.6,0.2,1.2-0.2,1.7
		c-3,3.4-6.2,6.6-9.7,9.6c-0.6,0.5-1.3,0.7-2.1,0.6c-1.5-0.8-1.4-2.2-1.4-3.6c0-40.2,0-80.4,0-120.6c0-1.1-0.3-2.3,0.9-3.1
		C210.6,14.1,215.3,14.5,220,15.7z"/>
	<path class="st15" d="M250.6,348c-1.3-1-0.8-2.5-0.8-3.8c0-22.2,0-44.3,0-66.5c0-1.3-0.5-2.8,0.8-3.8c1.9-0.2,2.8,1.4,3.9,2.4
		c3,2.8,5.6,6,9,8.3c2.7,1.8,5.7,2.9,8.9,3.5c1.4,0.3,3,0.7,1.3,2.6c-1.5,1.6-1.2,3.7-1.2,5.7c0,12.4,0,24.8,0,37.2
		c0,2,0.2,4-1.1,5.7C264.9,342.9,258,345.9,250.6,348z"/>
	<path class="st16" d="M251.4,96.6c-1.8-0.2-1.6-1.6-1.6-2.8c0-22.6,0-45.3,0-67.9c0-1-0.1-2,0.8-2.7c7.3,2.1,14.3,5.1,20.9,8.8
		c0.7,1.1,1.1,2.2,1.1,3.5c0,15.1,0.3,30.3-0.2,45.4c-0.3,1.5-1.1,2.5-2.5,2.9c-5.8,1.7-10,5.6-14.1,9.8
		C254.6,94.9,253.6,96.7,251.4,96.6z"/>
	<path class="st17" d="M144.2,267.7c0,27.4,0,54.9,0,82.3c-6-1.5-11.7-3.7-17.3-6.3c-0.7-1.1-1.1-2.2-1.1-3.5
		c0-18.1-0.3-36.2,0.2-54.3c0.1-0.7,0.3-1.5,0.8-2c5-5.5,10.2-10.6,15.6-15.7C143,267.8,143.6,267.6,144.2,267.7z"/>
	<path class="st14" d="M213.8,237.2c-1.1,1.2-0.6,2.6-0.6,3.9c0,37,0,74,0,110.9c0,1.4-0.6,3,0.8,4.2c-2.9,1.1-6,0.6-9.1,0.8
		c0-41.3,0-82.5-0.1-123.8c0-1.4-0.1-2.8,1.4-3.6C210,231,212.8,233.2,213.8,237.2z"/>
	<path class="st18" d="M145,21c0,27.7,0,55.5,0,83.2c-1.3,0.2-2.1-0.7-2.9-1.4c-3.4-3.3-6.7-6.7-10.1-10c-1.2-1.2-2.1-2.5-1.8-4.3
		c0.2-18.9,0-37.8,0.1-56.7c0-2.1-0.2-4.3,1.2-6.1C135.9,23.6,140.3,21.9,145,21z"/>
	<path class="st19" d="M271.6,339.2c0-15.5,0-31-0.1-46.5c0-2.5,0.9-3.4,3.2-3.2c0.7-0.8,1.7-1.1,2.7-1.2c5-0.5,9.3-2.5,13.1-5.7
		c0.6-0.5,1.2-0.8,2-0.6c0,13.1,0,26.2,0,39.4c0,1.6-0.3,3.3,1.6,4.1C287.1,331,279.6,335.5,271.6,339.2z"/>
	<path class="st20" d="M98.5,86c-1.9-1-1.4-2.8-1.4-4.3c0-12.6-0.1-25.2-0.1-37.7c5.8-4.5,12-8.2,18.7-11.2c1.7,1.3,1.9,3.2,1.9,5
		c0.2,13,0.2,26,0,39c0,1.5-0.3,3-1.1,4.3c-0.8,1.2-2,1.4-3.2,1.4c-4.6-0.1-8.8,1-12.7,3.3C100,86.2,99.3,86.5,98.5,86z"/>
	<path class="st21" d="M127.1,284.5c0,19.7-0.1,39.5-0.1,59.2c-5.2-1.9-10.1-4.4-14.9-7.2c-2-1.8-2.7-4.1-2.7-6.7
		c0-12,0-23.9,0-35.9c0-1.7-0.1-3.5,1.5-4.8C116.4,288,121.7,286.2,127.1,284.5z"/>
	<path class="st22" d="M115.8,81.4c1.5-7.5,0.7-15.1,0.7-22.7c0-8.7,0.9-17.4-0.7-26c5-3,10.3-5.3,15.8-7.2c0,19.8,0,39.5,0,59.3
		c0,1.7,0.2,3.5-0.8,5.1c-0.8,0.2-1.5-0.2-2-0.7c-3.3-3.1-7.2-5.2-11.5-6.7C116.7,82.3,116.1,82,115.8,81.4z"/>
	<path class="st23" d="M271.5,82.2c0-16.8,0-33.5,0.1-50.3c4.8,2,9.2,4.5,13.4,7.6c1,1.3,1.1,2.7,1.1,4.2c0,12,0,24.1,0,36.1
		c0,1.2-0.1,2.5-0.7,3.6c-0.2,0.2-0.3,0.5-0.5,0.5C280.4,83.7,275.8,84.1,271.5,82.2z"/>
	<path class="st24" d="M285,83.8c0-14.8,0-29.5,0.1-44.3c5.4,3,10.5,6.4,15.1,10.6c-2.5,0.5-1.6,2.5-1.6,3.9
		c-0.1,12.7-0.1,25.4,0,38.1c0,2.1-0.2,4.2-0.9,6.2c-0.5-0.1-0.9-0.3-1.2-0.8c-2.3-5.2-5.6-9.5-10.8-12.2
		C285.1,85,284.7,84.5,285,83.8z"/>
	<path class="st25" d="M112.2,289.5c-1.8,0.2-1.6,1.6-1.6,2.8c0,13,0,25.9,0,38.9c0,2,1.3,3.5,1.5,5.3c-5.5-2.8-10.8-6-15.7-9.7
		c0.9-1.3,0.7-2.9,0.7-4.3c0-11.7,0-23.4,0-35.1c0-1.3-0.5-2.8,0.8-3.8c1.1-0.4,1.9,0.2,2.7,0.7c2.7,2,5.8,3.1,9.1,3.6
		C110.8,288,112,288,112.2,289.5z"/>
	<path class="st26" d="M29.8,136.2c0.8,0.6,1.3,1.5,1.3,2.6c-1.2,30-0.1,60-0.6,90c0,2,1.8,4.4-0.7,6.2c-3.7-10.3-5.5-21.1-6.6-31.9
		c-2.3-22.1-0.2-43.8,5.9-65.2C29.2,137.3,29.5,136.7,29.8,136.2z"/>
	<path class="st27" d="M112.2,289.5c-5.2-0.9-10.2-2.4-14.3-5.9c-9.4-11.4-9.6-19-0.8-32.9c0-1.9,1.8-2.5,2.9-3.6
		c3.3-3.5,6.8-6.8,10.2-10.3c5.7-5.7,11.6-11.3,17.1-17.3c6-5.5,11.6-11.4,17.4-17.2c4.9-4.8,9.6-9.7,14.5-14.4
		c1.7-1.7,1.7-2.9,0-4.6c-4.9-4.8-9.7-9.6-14.5-14.4c-5.7-5.8-11.4-11.6-17.3-17.1c-5.4-6-11.4-11.5-17.1-17.3
		c-3.8-3.9-7.7-7.7-11.6-11.6c-0.7-0.6-1.8-1-1.5-2.3c-3.2-4.4-6.4-8.8-6.8-14.6c-0.6-8.1,2.4-14.5,8.2-19.9c5.2-3.8,11-5,17.3-4.6
		c6,1.1,10.7,4.4,14.9,8.5c4.5,5,9.2,9.7,14.2,14.2c5.8,6.2,11.7,12.2,18,18c5.8,6.2,11.7,12.2,18,17.9c4,4.1,8,8.2,11.9,12.2
		c0.8,0.8,1.6,1.7,2.7,0.4c3.5-3.8,7.7-7,10.7-11.2c4.4-3.6,8.4-7.5,12-12c5.1-4.3,10-9,14.2-14.2c6.7-5.8,12.9-12.2,18.9-18.7
		c2-1.9,4.2-3.8,6.1-5.9c3.8-4.2,8.5-7,14-8.5c4.6-0.3,9.1-0.1,13.5,1.5c6.1,3.1,10.3,8,12.6,14.5c0.7,3.9,0.6,7.8,0.1,11.6
		c-0.6,5.8-4.2,9.9-8.2,13.7c-1.3,1.3-2.6,2.6-3.9,4c-4.6,4.5-9.1,9-13.6,13.6c-7.3,7.2-14.5,14.4-21.7,21.7c-5,4.9-10,10-15,15
		c-2,2-4,4-6.1,6c-1.2,1.2-1.2,2.3,0,3.5c2,2,4,4,6.1,6c4.9,5,10,10,15,15c7.2,7.3,14.4,14.5,21.7,21.7c4.5,4.6,9,9.1,13.6,13.6
		c2.1,2.1,4.2,4.2,6.3,6.3c3.1,3.2,5.3,6.8,5.8,11.3c1.4,7.7-0.2,14.7-5.2,20.8c-4.9,4.9-10.9,7.3-17.8,7.4c-9-0.8-15-6.4-20.7-12.6
		c-1-1.1-2.2-2-3.3-3c-5.9-6.6-12.4-12.7-18.9-18.7c-5.5-6.4-11.5-12.4-18-18c-2-3-4.7-5.3-7.5-7.5c-3-4.3-7.2-7.4-10.7-11.3
		c-1.1-1.3-1.9-0.5-2.8,0.4c-4,4.1-8,8.2-11.9,12.2c-6.2,5.7-12.2,11.8-18,18c-6.5,6-12.7,12.3-18.7,18.7
		c-5.7,5.6-11.4,11.2-17.2,16.8C122.7,287.8,117.6,289.1,112.2,289.5z"/>
	<path class="st28" d="M110.7,237.2c-4.3,4.7-8.7,9.4-13.7,13.4c-1.5-1.3-1.4-3-1.4-4.8c0-40.2,0-80.4,0-120.5c0-1.8,0-3.5,1.4-4.8
		c5,4,9.3,8.7,13.7,13.4c-0.4,2.6-0.5,5.2-0.5,7.8c0,29.2,0,58.5,0,87.7C110.3,232,110.3,234.6,110.7,237.2z"/>
	<path class="st29" d="M284.9,127.1c2.5-2.6,5-5.2,7.5-7.8c2.5-2.7,3.8-6,5.3-9.4c0,50.4,0,100.9,0,151.3c-2.1-7.3-8-11.8-12.7-17.2
		c-1-1.8-1.2-3.8-1.2-5.8c0-35.1,0-70.3,0-105.4C283.7,130.8,283.9,128.9,284.9,127.1z"/>
	<path class="st30" d="M110.7,237.2c-1.8-0.2-1.6-1.6-1.6-2.8c0-32.6,0-65.2,0-97.8c0-1.3-0.1-2.6,1.6-2.8c5.8,5.6,11.8,11,17,17.3
		c0.4,2.3,0.5,4.7,0.5,7c0,18.2,0,36.5,0,54.7c0,2.4,0,4.7-0.5,7C122.6,226.2,116.6,231.6,110.7,237.2z"/>
	<path class="st31" d="M249.7,162.2c7-7.5,14.2-14.7,21.7-21.7c1.4,1.4,1.2,3.2,1.2,4.9c0,26.7,0,53.5,0,80.2c0,1.7,0.2,3.5-1.2,4.9
		c-7.5-7-14.7-14.2-21.7-21.7c-0.5-0.9-0.5-1.9-0.5-2.9c0.2-13.6,0.2-27.2,0-40.8C249.2,164.1,249.3,163.2,249.7,162.2z"/>
	<path class="st23" d="M271.4,230.6c0-30,0-60,0-90c4.3-4.7,8.7-9.2,13.5-13.5c0,39,0,78,0,117C280.2,239.8,275.7,235.3,271.4,230.6
		z"/>
	<path class="st8" d="M163.6,136.2c5,4.8,10,9.6,14.9,14.4c0.9,0.8,2,1.5,2.3,2.8c-0.5,17.4-0.1,34.7-0.2,52.1
		c0,4.1-0.1,8.2,0.2,12.2c-4.2,5.2-9.1,9.7-14,14.2c-1.1,1-2.2,1.9-3.2,3c-2-0.5-1.8-2.3-1.8-3.6c-0.1-9.7-0.1-19.4,0-29.1
		c0-1.4,0.5-2.7,1.1-3.9c2.8-2.9,5.7-5.8,8.5-8.8c2.7-2.9,2.7-4.8,0-7.7c-2.8-3-5.7-5.9-8.5-8.8c-0.9-1.5-1.2-3.2-1.2-5
		c0-9,0-17.9,0-26.9C161.8,139.3,161.3,137.2,163.6,136.2z"/>
	<path class="st17" d="M127.7,220c-1.1-1-0.7-2.3-0.7-3.5c0-20.6,0-41.1,0-61.7c0-1.2-0.4-2.5,0.7-3.5c6.3,5.2,11.8,11.2,17.4,17.1
		c-0.8,11.5-0.8,23,0,34.5C139.5,208.7,134,214.7,127.7,220z"/>
	<path class="st16" d="M249.7,111.4c5.7-5.8,11.4-11.7,17.2-17.4c1.4-1.4,3.2-2.4,5.2-2.6c0.9,2.3,0.4,4.7,0.4,7
		c-0.2,9.3,0.7,18.7-0.5,28c-6.5,7.5-13.6,14.2-20.8,21c-3.5,0.4-2.6-2.5-2.6-4.1c-0.2-7.7-0.1-15.4-0.1-23.2
		C248.6,117.2,248.1,114.2,249.7,111.4z"/>
	<path class="st14" d="M204.9,156.3c3.5-4,7.2-7.7,11.2-11.2c2.3,1.3,1.8,3.6,1.9,5.6c0.2,9.9-0.4,19.8,0.4,29.6
		c-4.2,5-4.2,5.4,0,10.4c-0.8,9.9-0.2,19.8-0.4,29.6c-0.1,2,0.4,4.3-1.9,5.6c-4-3.5-7.7-7.2-11.2-11.2c-0.6-1-0.5-2.1-0.5-3.3
		c0.2-17.3,0.2-34.6,0-51.9C204.3,158.5,204.3,157.4,204.9,156.3z"/>
	<path class="st13" d="M249.7,111.4c0,10.8,0,21.6,0.1,32.4c0,1.3-0.8,3.2,1.5,3.6c-6,6.5-12.2,12.9-18.9,18.7
		c-2.7,0.5-2.3-1.7-2.4-3.1c-0.3-4.1-0.1-8.2-0.1-12.2c-0.1-5.6,0.1-11.1-0.1-16.7c-0.1-1.1,0-2.2,0.5-3.3
		C236.6,124.2,243,117.6,249.7,111.4z"/>
	<path class="st32" d="M180.8,217.7c-1.8-0.4-1.4-1.8-1.4-3c0-19.4,0-38.9,0-58.3c0-1.2-0.5-2.6,1.4-3c4,3.7,8.1,7.5,12.1,11.2
		c0.6,1.7,0.4,3.4,0.4,5.2c0,10.8,0,21.6,0,32.3c0,1.5,0.1,3-0.4,4.4C188.9,210.3,184.9,214,180.8,217.7z"/>
	<path class="st5" d="M192.9,206.5c-0.9-0.7-0.8-1.8-0.8-2.7c0-12.2,0-24.3,0-36.5c0-1-0.2-2,0.8-2.7c2.4,0.3,4.2-0.7,5.8-2.4
		c1.9-2,4.1-3.9,6.1-5.8c0.6,1.9,0.8,3.9,0.8,5.9c0,15.6,0,31.1,0,46.7c0,2-0.2,4-0.8,5.9c-2-1.9-4.1-3.8-6.1-5.8
		C197.1,207.3,195.3,206.2,192.9,206.5z"/>
	<path class="st15" d="M271.4,279.3c-2.2-0.3-3.9-1.6-5.3-3.1c-3.7-3.7-7.4-7.5-11.1-11.3c-0.8-1.3-1-2.8-1-4.3c0-8.6,0-17.1,0-25.7
		c0-1.5,0.2-3,1-4.3c0.5-0.9,1.2-1.6,2.4-1c5.2,4.8,10.2,9.7,15,15c0.7,10.7,0.3,21.3,0.2,32C272.5,277.6,272.3,278.6,271.4,279.3z"
		/>
	<path class="st17" d="M142.8,152.7c-5.2-4.7-10.2-9.7-15-15c-0.5-0.9-0.8-1.8-0.7-2.8c0.7-9.5,0.1-19.1,0.4-28.7
		c0-1.6-0.5-3.6,1.7-4.4c5.7,4.8,10.8,10.2,15.9,15.6c-0.8,9.9-0.2,19.8-0.4,29.6C144.6,149.1,145.1,151.4,142.8,152.7z"/>
	<path class="st33" d="M110.6,250.6c5-5.5,10.2-10.7,15.7-15.7c1.5,0.7,1.8,2,1.8,3.4c0,10.8,0.7,21.7-0.4,32.5
		c-3.4,4.3-6.9,8.5-12.8,9.4c-1.5,0.2-3,0.4-4.3-0.4c-1-3.8-0.2-7.6-0.4-11.5c-0.2-4.8,0.2-9.7-0.2-14.5
		C109.9,252.7,109.9,251.6,110.6,250.6z"/>
	<path class="st34" d="M139,222.2c4.7-5.2,9.7-10.2,15-15c1.5,1.5,1.1,3.5,1.2,5.3c0.1,10.2-0.2,20.4,0.3,30.6
		c-4.5,5.5-9.6,10.3-15,14.9c-1.7-0.3-1.7-1.7-1.7-2.9c-0.3-10.6,0.1-21.1-0.3-31.7C138.5,223.1,138.8,222.6,139,222.2z"/>
	<path class="st13" d="M249.8,259.7c-5-4.5-9.7-9.2-14.2-14.2c-0.9-1.4-1.2-3-1.2-4.6c0-8.8-0.1-17.7,0.1-26.5
		c0-1.9-0.4-4.5,2.7-4.8c4.9,4.5,9.8,9,14,14.3c-0.5,10.1-0.1,20.2-0.2,30.2C250.9,255.9,251.3,258,249.8,259.7z"/>
	<path class="st10" d="M230.3,130.8c1.2,3.2,0.8,6.6,0.8,9.9c0,7.3,0,14.6,0,22c0,1.2-0.7,2.9,1.3,3.4c-4.2,5.2-9.2,9.7-14,14.3
		c-1.9-0.9-1.5-2.6-1.5-4.2c0-8.8,0-17.6,0-26.4c0-1.6,0.1-3.2-0.8-4.7C220.6,140.1,225.4,135.4,230.3,130.8z"/>
	<path class="st13" d="M249.7,162.2c0.6,2,0.8,4.1,0.8,6.2c-0.1,11.4-0.1,22.8,0,34.2c0,2.1-0.2,4.2-0.8,6.2
		c-5.2-4.7-10.2-9.8-15-15c-0.5-5.6-0.5-11.1,0-16.7C239.5,172,244.5,167,249.7,162.2z"/>
	<path class="st35" d="M139,222.2c1.6,10.5,0.4,21.1,0.8,31.6c0.1,1.4-0.5,3,0.6,4.3c-3.4,5.1-8.7,8.3-12.7,12.7
		c-1.1-1.2-0.6-2.6-0.6-3.9c0-9.2,0-18.4,0-27.6c0-1.5,0.1-3-0.8-4.3C130.3,230.4,134.5,226.2,139,222.2z"/>
	<path class="st22" d="M129.2,101.8c-1,1.1-0.6,2.4-0.6,3.6c0,7.2-0.1,14.4,0,21.6c0.1,3.6-0.2,7.2-0.8,10.7c-4.2-3.7-8.2-7.7-12-12
		c-0.5-0.8-0.6-1.6-0.5-2.5c0.3-8.8,0-17.6,0.2-26.4c0-1.9-0.5-4.5,2.6-4.9C123,93.9,125.9,98,129.2,101.8z"/>
	<path class="st23" d="M271.4,279.3c0-10.3,0-20.6,0.1-30.8c0-1.3-0.5-2.8,0.8-3.8c4.5,4.4,9.2,8.7,13.5,13.3
		c4.2,4.5,4.6,11.1,1.3,16.2C283.8,279.3,277.8,281.2,271.4,279.3z"/>
	<path class="st23" d="M272.1,126.4c-0.8-0.8-0.6-1.8-0.6-2.8c0-9.5,0-19.1,0-28.6c0-1.3,0-2.5,0.7-3.6c5.8-1.5,11.5,0.5,14.7,5.3
		c3.2,4.7,3.3,11.1-0.6,15.6C282,117.4,277.3,122.2,272.1,126.4z"/>
	<path class="st10" d="M216.1,226c0.9-1.5,0.8-3.1,0.8-4.7c0-8.8,0-17.6,0-26.4c0-1.6-0.4-3.3,1.6-4.2c3.9,3.6,7.9,7,11,11.3
		c-0.4,10.2-0.1,20.4-0.2,30.6c0,1.8,0.3,3.8-1.2,5.3C223.8,234.2,219.8,230.2,216.1,226z"/>
	<path class="st36" d="M118.1,92c-1.9,0.9-1.5,2.6-1.5,4.2c0,7.8,0,15.6,0,23.4c0,2.1-0.2,4.2-0.8,6.2c-4.4-4.3-8.9-8.4-13-12.9
		c-4.2-4.6-4.2-11.7-0.6-16.6C106.1,91.2,112.1,89.6,118.1,92z"/>
	<path class="st34" d="M142.8,152.7c0.9-1.5,0.8-3.1,0.8-4.7c0-9,0-17.9,0-26.9c0-1.3-0.8-3.2,1.5-3.6c3.7,3.3,7.3,6.6,10.3,10.5
		c-0.5,9.8-0.1,19.7-0.3,29.5c0,2,0.5,4.4-1.9,5.7C149.5,159.9,146,156.4,142.8,152.7z"/>
	<path class="st34" d="M145.2,202.8c-1.8-0.2-1.6-1.5-1.6-2.8c0-9.7,0-19.3,0-29c0-1.3-0.1-2.6,1.6-2.8c5.3,5.2,10.6,10.4,15.9,15.6
		c1.3,1.2,1.3,2.1,0,3.3C155.7,192.4,150.5,197.6,145.2,202.8z"/>
	<path class="st37" d="M153.2,163.2c0.9-1.5,0.8-3.1,0.8-4.7c0-8.8,0-17.7,0-26.5c0-1.5-0.3-3.1,1.4-4c2.3,3.1,6.4,4.6,8.2,8.2
		c-1.1,1.2-0.6,2.6-0.6,3.9c0,10.9,0,21.8,0,32.7C159.5,169.9,156.2,166.6,153.2,163.2z"/>
	<path class="st38" d="M155.4,243.1c-1.4-1.3-1.4-3-1.4-4.8c0-10.4,0-20.8,0-31.1c2.8-3.2,5.7-6.2,9-9c0,10.9,0,21.8,0,32.8
		c0,1.3-0.5,2.8,0.6,3.9C161.8,238.6,157.7,240,155.4,243.1z"/>
	<path class="st39" d="M228.1,238c0-10.4,0-20.7,0-31.1c0-1.8,0-3.5,1.4-4.8c2.7,2.3,5.5,4.5,7.7,7.4c-1.9,0.9-1.6,2.6-1.6,4.2
		c0,10.6,0,21.2,0,31.8C232.8,243.2,230.3,240.7,228.1,238z"/>
	<path class="st40" d="M110.6,250.6c1.5,8.9,0.4,17.8,0.7,26.7c0,0.8-0.5,1.6-0.7,2.5c-10.2-1.7-14.5-13.6-7.7-21.7
		C105.2,255.4,108,253.1,110.6,250.6z"/>
	<path class="st15" d="M249.8,259.7c0-10.7,0-21.5,0-32.2c0-1.3-0.9-3.1,1.4-3.7c1.3,1.3,2.5,2.6,3.8,3.8
		c-0.6,10.9-0.3,21.7-0.4,32.6c0,1.3,0,2.6-1.9,2.5C251.5,261.9,250.5,260.9,249.8,259.7z"/>
	<path class="st41" d="M234.8,177.2c1.3,5.6,1.3,11.1,0,16.7C224.1,183.2,224.1,187.9,234.8,177.2z"/>
	<path class="st13" d="M252.7,262.6c1.9-0.9,1.5-2.7,1.5-4.2c0-8.8,0-17.7,0-26.5c0-1.5-0.2-3,0.7-4.3c1.2,0.2,1.8,1.2,2.4,2.1
		c-2.5,1.1-2.3,3.4-2.3,5.6c0,9.9,0,19.8,0,29.6C254,264.4,253.3,263.6,252.7,262.6z"/>
</g>
</svg>
