<?xml version="1.0" encoding="utf-8"?>
<!-- Generator: Adobe Illustrator 26.2.1, SVG Export Plug-In . SVG Version: 6.00 Build 0)  -->
<svg version="1.1" id="Capa_1" xmlns="http://www.w3.org/2000/svg" xmlns:xlink="http://www.w3.org/1999/xlink" x="0px" y="0px"
	 viewBox="0 0 822.4 199.2" style="enable-background:new 0 0 822.4 199.2;" xml:space="preserve">
<style type="text/css">
	.st0{fill:#020203;}
	.st1{fill:#ECEAEC;}
	.st2{fill:#13A9E2;}
	.st3{fill:#B6B1B7;}
	.st4{fill:#DBD9DB;}
	.st5{fill:#FFE07E;}
	.st6{fill:#FBC16B;}
	.st7{fill:#EDEAEC;}
	.st8{fill:#EAE8EA;}
	.st9{fill:#FAC16B;}
	.st10{fill:#010202;}
	.st11{font-family:'Arial-Black';}
	.st12{font-size:119.4934px;}
</style>
<g>
	<path class="st0" d="M219,163c0,3.8,0,7.6,0,11.4c-0.6,2.3-1.6,3.1-4.1,3.1c-24.2,0-48.5,0-72.7,0c-2.3,0-3.2-0.7-3.5-2.7
		c0.5-2.1,1.3-2.7,3.4-2.8c0.8,0,1.5,0,2.3,0c21.9,0,43.7,0,65.6,0c0.5,0,1.1,0,1.6,0c1.8-0.1,2-0.2,2-2c0-4.6,0.4-4.1-3.9-4.1
		c-49.6,0-99.3,0-148.9,0c-3.4,0-3.4,0-3.4,3.4c0,0.5,0,1,0,1.5c0,0.8,0.4,1.2,1.2,1.2c0.7,0,1.4,0,2.1,0c22.7,0,45.4,0,68.2,0
		c1.9,0,3.6,0.2,4.3,2.4c0,2.3-0.8,3.2-3.1,3.2c-24.7,0-49.5,0-74.2,0c-2.7,0-4.1-1.4-4.1-4.1c0-3,0-6.1,0-9.1c0-2.4,1.4-4,3.8-4.2
		c0.8-0.1,1.5-0.1,2.3-0.1c2.7,0,2.7,0,2.7-2.8c0-1,0-2.1,0-3.1c0.1-2.9,1.7-4.7,4.6-4.8c2.2-0.1,2.2-0.1,2.2-2.4
		c0-6.1,0-12.2,0-18.3c0-2.1-0.1-2.2-2.2-2.3c-3.2-0.1-4.6-1.6-4.7-4.8c0-1.1,0-2.3,0-3.4c0-2.2-0.1-2.2-2.2-2.2
		c-0.9,0-1.7,0-2.6-0.1c-2.7-0.3-4-1.9-4.1-4.6c0-3,0-6,0-9c0-2.6,1.5-4.1,4.1-4.2c1.5-0.1,3,0,4.6,0c1.9,0,2.1-0.2,2.1-2
		c0-7.3,0-14.7,0-22c0-1.3-0.5-1.9-1.8-1.8c-3.1,0.2-5.5-1.2-7.3-3.5c-3.4-4.2-2-11.1,2.8-13.9c3.6-2.1,7.2-4.2,10.9-6.3
		c17.3-10,34.7-20,52-30c3.5-2,7.1-4.1,10.6-6.1c3.8-2.2,7.6-2.3,11.5-0.1c5.1,3,10.3,5.9,15.4,8.9c15.8,9.1,31.5,18.2,47.3,27.3
		c3.4,2,6.8,3.9,10.2,5.9c2.8,1.6,4.7,3.6,4.9,6.9c0,1.2,0,2.4,0,3.6c-1.2,4.9-3.8,7.1-8.9,7.3c-1.2,0.1-1.7,0.5-1.7,1.7
		c0,7.4,0,14.9,0,22.3c0,1.2,0.5,1.8,1.7,1.8c1.6,0,3.1,0,4.7,0c2.4,0.1,3.4,0.8,4.2,3.1c0,3.8,0,7.6,0,11.4
		c-0.8,2.4-1.9,3.2-4.5,3.4c-0.9,0.1-1.7,0-2.6,0c-1.1,0-1.6,0.5-1.5,1.6c0,1.5,0,2.9,0,4.4c-0.1,2.8-1.6,4.3-4.3,4.5
		c-2.5,0.1-2.5,0.1-2.5,2.6c0,6,0,12.1,0,18.1c0,2,0,2,2.1,2.2c3.1,0.2,4.7,1.9,4.8,5c0,1.4,0,2.8,0,4.2c0,1,0.4,1.5,1.4,1.5
		s2,0,2.9,0C216.8,160,218.3,160.9,219,163z"/>
	<path class="st1" d="M202.9,75.2c0,7.4,0,14.8,0.1,22.2c0,1.2-0.7,1-1.4,1c-5.4,0-10.8,0-16.1,0c-14.5,0-29,0-43.5,0
		c-1.8,0-2.9,0.6-3.3,2.3c-1.9,0.8-3.9,0.8-5.8,0c-0.4-1.8-1.6-2.4-3.3-2.3c-19.9,0-39.9,0-59.8,0.1c-1.4,0-1.9-0.3-1.9-1.8
		C68,89.6,68,82.5,68,75.3c1.1-1.5,2.9-2.1,4.4-3c16.7-9.7,33.4-19.3,50.1-29c3.6-2.1,7.3-4.1,10.9-6.3c1.6-1,2.8-0.9,4.5,0.1
		c15.4,9,30.9,17.9,46.4,26.8c5.7,3.3,11.4,6.6,17.1,9.9C201.9,74.2,202.6,74.5,202.9,75.2z"/>
	<path class="st2" d="M210,66.8c-1,0.1-1.9-0.5-2.8-1c-23-13.3-46.1-26.6-69.1-39.9c-1.9-1.1-3.4-1.2-5.3,0
		c-23,13.4-46,26.6-69.1,39.9c-0.9,0.5-1.9,1.1-3,1c-1.7-0.1-3-0.9-3.6-2.5s-0.2-3,0.9-4.2c0.4-0.4,0.9-0.7,1.4-1
		c24.2-14,48.4-27.9,72.6-41.9c2.4-1.4,4.5-1.3,6.8,0C161,30,183.2,42.8,205.4,55.6c2.3,1.3,4.5,2.5,6.7,3.9
		c1.7,1.1,2.3,2.8,1.7,4.5C213.3,65.8,211.9,66.8,210,66.8z"/>
	<path class="st2" d="M132.9,100.7c1.9,0,3.9,0,5.8,0c0.6,2.2,1.1,2.6,3.5,2.6c23.4,0,46.7,0,70.1,0c1.5,0,2,0.3,1.8,1.8
		c-0.2,1.7,0.6,3.9-0.3,4.9c-1,1.1-3.3,0.3-5,0.3c-50,0-100,0-150,0.1c-1.7,0-2.2-0.4-2-2s-0.5-3.8,0.3-4.7c0.9-1,3.2-0.3,4.8-0.3
		c22.5,0,45,0,67.5,0C131.7,103.3,132.3,102.9,132.9,100.7z"/>
	<path class="st2" d="M139,174.8c-2.1,0-4.1,0-6.2,0c-0.7-2.1-1.1-2.4-3.5-2.4c-23.6,0-47.2,0-70.8,0c-1.5,0-2-0.3-1.9-1.8
		s0.1-2.9,0-4.4c0-0.7,0.2-1,0.9-0.9c0.3,0,0.7,0,1,0c51.1,0,102.3,0,153.4,0c1.7,0,2.1,0.5,1.9,2.1c-0.2,1.7,0.7,3.9-0.4,4.8
		c-0.9,0.8-3.1,0.3-4.7,0.3c-22.2,0-44.4,0-66.5,0C140.6,172.4,139.5,173,139,174.8z"/>
	<path class="st3" d="M108.2,160.4c-2,0-4,0-6,0c-0.8,0-1-0.2-1-1c0.1-1.6,0-3.3,0-4.9c0-3.3-1.5-4.9-4.8-4.8
		c-1.6,0.1-2.2-0.3-2.1-2.1c0.1-6.5,0-13,0-19.6c0-2.2,0-2.2,2.2-2.2c3.2,0,4.6-1.5,4.6-4.7c0-1.4,0.1-2.7,0-4.1
		c-0.2-1.6,0.5-1.9,1.9-1.8c3.5,0.1,7,0.1,10.4,0c1.4,0,2.1,0.2,1.9,1.8c-0.1,1.4-0.1,2.8,0,4.2c0.1,3.1,1.5,4.5,4.6,4.6
		c2.2,0,2.2,0,2.2,2.3c0,6.7,0,13.4,0,20.1c0,1.2-0.3,1.5-1.5,1.5c-4.1,0-5.3,1.3-5.3,5.4c0,1.4,0,2.8,0,4.2c0,0.9-0.3,1.1-1.1,1.1
		C112.2,160.4,110.2,160.4,108.2,160.4z"/>
	<path class="st3" d="M162.5,160.4c-2,0-3.9,0-5.9,0c-0.8,0-1.1-0.2-1.1-1.1c0.1-1.6,0-3.2,0-4.7c0-3.4-1.5-5-4.9-4.9
		c-1.7,0.1-2.1-0.4-2-2c0.1-6.7,0.1-13.5,0-20.2c0-1.2,0.2-1.8,1.6-1.6c4.2,0.4,5.5-2.1,5.3-5.4c-0.1-1.4,0-2.7,0-4.1
		c0-0.8,0.2-1.2,1.1-1.2c4,0,8,0,12.1,0c0.9,0,1.1,0.4,1,1.2c0,1.7,0,3.4,0,5.1c0,2.8,1.5,4.3,4.3,4.4c0.4,0,0.9,0.1,1.3,0
		c1-0.2,1.3,0.3,1.3,1.3c0,7.1,0,14.2,0,21.4c0,1.1-0.4,1.3-1.3,1.2c-0.4-0.1-0.9,0-1.3,0c-2.7,0.1-4.2,1.7-4.3,4.3
		c0,1.8,0,3.6,0,5.4c0,0.8-0.2,1-1,1C166.6,160.4,164.6,160.4,162.5,160.4z"/>
	<path class="st4" d="M202.9,75.2c-6.8-3.9-13.5-7.8-20.3-11.7s-13.5-7.8-20.3-11.7c-6.7-3.9-13.3-7.7-20-11.6
		c-2.1-1.2-4.2-2.4-6.2-3.6c-0.7-0.5-1.3-0.1-1.8,0.2c-4.6,2.6-9.2,5.3-13.8,7.9c-6.8,3.9-13.5,7.8-20.3,11.7
		c-5.8,3.4-11.6,6.7-17.5,10.1c-5,2.9-10,5.7-14.9,8.6c-0.4-6-0.4-6,4.8-9c20.5-11.8,40.9-23.6,61.4-35.4c1-0.6,1.8-0.6,2.8,0
		c21.7,12.5,43.3,25.1,65,37.5c0.9,0.5,1.2,1,1.2,2C202.9,72,203,73.6,202.9,75.2z"/>
	<path class="st5" d="M198,131.4c0,5.8,0,11.6,0.1,17.4c0,0.7-0.2,0.9-0.9,0.9c-5.2-0.1-10.3-0.1-15.5-0.1c-0.3-2.9-0.1-5.8-0.1-8.8
		c0-2.7,0.1-5.4,0-8.1c-0.1-1.4,0.5-1.8,1.8-1.9c4.3,0,8.7,0,13,0C197,130.8,197.6,130.9,198,131.4z"/>
	<path class="st5" d="M143.6,131.3c0,5.8,0,11.6,0.1,17.4c0,0.7-0.2,0.9-0.9,0.9c-4.9,0-9.8,0-14.7,0c-0.7,0-0.9-0.2-0.9-0.9
		c0.1-5.8,0.1-11.6,0.1-17.4c0.6-0.5,1.3-0.5,2-0.5c4.1,0,8.2,0,12.4,0C142.3,130.8,143,130.8,143.6,131.3z"/>
	<path class="st5" d="M89.1,149.6c-5.2,0-10.3,0.1-15.5,0.1c-0.7,0-0.9-0.2-0.9-0.9c0-5.8,0.1-11.6,0.1-17.4c0.6-0.5,1.3-0.5,2-0.5
		c4.1,0,8.1,0,12.2,0c2.1,0,2.2,0.2,2.2,2.3c0,4.9,0,9.9,0,14.8C89.3,148.5,89.4,149.1,89.1,149.6z"/>
	<path class="st1" d="M189.9,160.4c-4.7,0-9.3,0-14,0c-1.1,0-1.4-0.3-1.3-1.4c0.1-1.4-0.4-3.2,0.3-4.1c0.8-0.9,2.6-0.3,4-0.3
		c8.2,0,16.4,0,24.6,0c1.1,0,1.6,0.2,1.5,1.4c-0.1,1.4,0.4,3.2-0.3,4.1c-0.7,0.9-2.6,0.3-4,0.3C197.1,160.4,193.5,160.4,189.9,160.4
		z"/>
	<path class="st1" d="M81,160.4c-4.6,0-9.1,0-13.7,0c-1.1,0-1.6-0.1-1.5-1.4c0.1-1.4-0.5-3.3,0.2-4.1c0.8-0.9,2.8-0.3,4.2-0.3
		c8.1,0,16.2,0,24.3,0c1.2,0,1.8,0.2,1.7,1.6c-0.2,1.3,0.4,3.1-0.3,3.9c-0.7,0.9-2.5,0.3-3.9,0.3C88.4,160.4,84.7,160.4,81,160.4z"
		/>
	<path class="st1" d="M135.4,160.4c-4.6,0-9.2,0-13.8,0c-1.1,0-1.4-0.3-1.3-1.4c0.1-1.4-0.6-3.2,0.3-4.1c0.8-0.9,2.7-0.3,4.1-0.3
		c8.1,0,16.3,0,24.4,0c1.2,0,1.7,0.2,1.6,1.5c-0.2,1.4,0.6,3.2-0.3,4c-0.8,0.7-2.6,0.2-3.9,0.2C142.7,160.4,139.1,160.4,135.4,160.4
		z"/>
	<path class="st4" d="M66,118.6c-0.2-3.4-0.2-3.4,3.1-3.4c8.5,0,17,0,25.5,0c1.2,0,1.8,0.2,1.6,1.6c-0.2,1.3,0.4,2.7-0.3,4
		c-0.6-1.5-1.8-1.7-3.2-1.7c-8,0.1-16.1,0-24.1,0C67.7,119.1,66.8,119.3,66,118.6z"/>
	<path class="st4" d="M174.9,120.9c-0.7-1.7-0.2-3.5-0.2-5.2c0-0.7,0.9-0.4,1.4-0.4c6.7,0,13.3,0,20,0c2.4,0,4.9,0.1,7.3,0
		c1.3-0.1,1.7,0.4,1.5,1.6c-0.1,0.6,0,1.2-0.1,1.8c-0.8,0.7-1.7,0.5-2.6,0.5c-8,0-16.1,0-24.1,0
		C176.7,119.1,175.5,119.3,174.9,120.9z"/>
	<path class="st6" d="M89.1,149.6c0-5.5-0.1-11.1,0-16.6c0-1.3-0.3-1.7-1.6-1.7c-4.9,0.1-9.8,0-14.7,0c0-1.5,0-2.9-0.1-4.4
		c0-0.8,0.2-1.1,1.1-1.1c4.8,0,9.6,0,14.5,0c0.7,0,1.1,0.1,1.1,1c0,7.5,0,15,0,22.4C89.4,149.4,89.2,149.5,89.1,149.6z"/>
	<path class="st6" d="M198,131.4c-4.9,0-9.9,0-14.8,0c-1.1,0-1.5,0.3-1.5,1.5c0,5.6,0,11.2,0,16.8c-0.5-0.4-0.3-0.9-0.3-1.3
		c0-7,0-13.9,0-20.9c0-1.2,0.3-1.6,1.5-1.5c4.6,0.1,9.2,0.1,13.9,0c1,0,1.3,0.3,1.3,1.3C198,128.5,198.1,129.9,198,131.4z"/>
	<path class="st4" d="M120.4,118.6c-0.3-3.4-0.3-3.4,2.9-3.4c8.4,0,16.8,0.1,25.2,0c1.7,0,2.3,0.5,2.1,2.1c-0.1,0.4-0.1,0.9-0.1,1.3
		c-0.6,0.5-1.4,0.5-2.2,0.5c-8.6,0-17.2,0-25.8,0C121.8,119.2,121,119.2,120.4,118.6z"/>
	<path class="st6" d="M143.6,131.3c-5.5,0-10.9,0-16.4,0c0-1.5,0-3-0.1-4.5c0-0.7,0.2-0.9,0.9-0.9c4.9,0,9.8,0,14.6,0
		c0.7,0,1,0.3,0.9,0.9C143.6,128.3,143.6,129.8,143.6,131.3z"/>
	<path class="st7" d="M120.4,118.6c10,0,20.1,0,30.1,0c0.2,2.3,0.2,2.3-2,2.3c-8.7,0-17.4,0-26.1,0
		C120.2,120.9,120.2,120.9,120.4,118.6z"/>
	<path class="st1" d="M174.9,120.9c0.1-2.4-0.3-2.2,2.3-2.2c9.2,0,18.4,0,27.7,0c0,0.4,0,0.9,0.1,1.3c0.1,0.7-0.1,1-1,1
		C194.3,120.9,184.6,120.9,174.9,120.9z"/>
	<path class="st1" d="M66,118.6c9.2,0,18.4,0,27.7,0c2.7,0,2.3-0.2,2.3,2.2c-7,0-14.1,0.1-21.1,0.1c-2.2,0-4.4,0-6.7,0
		C65.9,120.9,65.9,120.9,66,118.6z"/>
	<path class="st0" d="M92.2,79c0-2.9,0-5.8,0-8.6c0-2.4,0.9-3.2,3.2-3.3c1.6,0,3.1,0,4.7,0c5,0.1,8.2,4.8,6.3,9.4
		c-0.3,0.9-0.2,1.3,0.4,1.9c2,2.4,2.5,5.1,1.2,8c-1.3,2.8-3.5,4.4-6.6,4.5C99.3,91,97.2,91,95,91c-2,0-2.8-0.9-2.9-2.9
		C92.1,85.1,92.2,82,92.2,79z"/>
	<path class="st0" d="M151.1,80.7c0-3.5,0-6.6,0-9.8c0-0.5,0-1,0-1.5c0.1-1.3,1.2-2.4,2.5-2.3c1.3,0,2.4,1,2.4,2.4
		c0.1,6.1,0.2,12.2,0.2,18.3c0,1.4-0.6,2.6-2.1,3c-1.4,0.4-2.4-0.4-3.1-1.5c-2.6-3.8-5.2-7.5-8.1-11.7c0,3.8,0,7.1,0,10.5
		c0,1.2-0.3,2.2-1.4,2.7c-1.6,0.9-3.5-0.3-3.5-2.2c0-6.3,0-12.5,0-18.8c0-1.2,0.5-2.1,1.7-2.5c1.3-0.4,2.2,0.2,2.9,1.2
		c2.6,3.8,5.2,7.6,7.9,11.4C150.6,80,150.7,80.2,151.1,80.7z"/>
	<path class="st0" d="M132.9,88.4c0,1.3-0.5,2.1-1.6,2.5c-1.1,0.3-2,0.1-2.7-0.9c-0.2-0.2-0.3-0.5-0.4-0.7c-0.4-2.8-2.2-3.4-4.6-2.9
		c-0.3,0-0.5,0-0.8,0c-2.6-0.4-4.4,0.1-5,3.1c-0.3,1.4-1.9,1.9-3.2,1.4c-1.2-0.5-1.8-1.8-1.3-3.2c2.3-6.2,4.7-12.3,7-18.5
		c0.5-1.2,1.4-2,2.7-2c1.3,0,2.2,0.7,2.7,1.9c2.3,6.2,4.7,12.3,7,18.5C132.8,87.9,132.8,88.2,132.9,88.4z"/>
	<path class="st0" d="M168.2,83.8c0,1.8,0,3.2,0,4.6c-0.1,1.7-1,2.6-2.5,2.6c-1.4,0-2.4-1-2.4-2.5c0-6.4,0-12.7,0-19.1
		c0-1.5,1.1-2.5,2.5-2.5s2.3,1,2.4,2.5c0.1,1.2,0,2.5,0,4.1c2.2-2,4.1-3.8,6.1-5.6c0.9-0.8,2-1.1,3.1-0.4c1,0.6,1.3,1.6,1.1,2.7
		c-0.1,0.7-0.7,1.2-1.2,1.7c-2.2,2-4.3,4-6.5,5.9c-0.7,0.6-0.7,1,0,1.6c2.4,2.2,4.7,4.5,7.1,6.8c1.5,1.5,1.8,3,0.8,4.1
		c-1.1,1.1-2.6,1-4.1-0.5C172.5,87.9,170.5,86,168.2,83.8z"/>
	<path class="st0" d="M125.5,49.2c0.1-5.7,4.8-10.2,10.4-10.1c5.7,0.1,10.4,5,10.2,10.5c-0.2,5.7-4.9,10.2-10.5,10.1
		C129.9,59.6,125.4,54.9,125.5,49.2z"/>
	<path class="st1" d="M97.1,83.4c0-2.6,0-2.6,2.6-2.6c0.6,0,1.2,0,1.8,0c1.4,0.2,2.3,1.4,2.3,2.7c-0.1,1.4-1.1,2.4-2.5,2.5
		c-0.5,0-1,0-1.5,0C97.1,86.1,97.1,86.1,97.1,83.4z"/>
	<path class="st8" d="M97.1,73.6c-0.5-1.8,0.8-1.6,2-1.5c1.9,0,3,0.7,2.9,2c0,1.3-1,1.9-3.3,1.9C97.1,75.9,97.1,75.9,97.1,73.6z"/>
	<path class="st8" d="M123,75.8c0.8,2,1.4,3.8,2.1,5.6c-1.5,0-2.8,0-4.3,0C121.5,79.6,122.2,77.8,123,75.8z"/>
	<path class="st5" d="M141,49.1c0.2,3.3-2.1,5.7-5.4,5.6c-3.2-0.1-5.4-2.6-5.1-6c1.8-2.2,4.3-2.4,6.8-1.9
		C138.8,47.2,140.2,47.7,141,49.1z"/>
	<path class="st9" d="M141,49.1c-3.4-2.6-6.9-2.6-10.4-0.3c0.3-2.8,2.5-4.7,5.4-4.7C138.8,44.2,140.9,46.2,141,49.1z"/>
</g>
<text transform="matrix(1 0 0 1 228.8271 154.4563)" class="st10 st11 st12">Bank</text>
<text transform="matrix(1 0 0 1 578.827 157.4954)" class="st2 st11 st12">Inc</text>
</svg>
