<?xml version="1.0" encoding="utf-8"?>
<!-- Generator: Adobe Illustrator 26.2.1, SVG Export Plug-In . SVG Version: 6.00 Build 0)  -->
<svg version="1.1" id="Capa_1" xmlns="http://www.w3.org/2000/svg" xmlns:xlink="http://www.w3.org/1999/xlink" x="0px" y="0px"
	 viewBox="0 0 512 512" style="enable-background:new 0 0 512 512;" xml:space="preserve">
<style type="text/css">
	.st0{fill:#020203;}
	.st1{fill:#ECEAEC;}
	.st2{fill:#13A9E2;}
	.st3{fill:#B6B1B7;}
	.st4{fill:#DBD9DB;}
	.st5{fill:#FFE07E;}
	.st6{fill:#FBC16B;}
	.st7{fill:#EDEAEC;}
	.st8{fill:#EAE8EA;}
	.st9{fill:#FAC16B;}
</style>
<g>
	<path class="st0" d="M474,435.2c0,9.9,0,19.7,0,29.6c-1.6,6-4.1,8-10.6,8c-62.7,0-125.7,0-188.5,0c-6,0-8.3-1.8-9.1-7
		c1.3-5.4,3.4-7,8.8-7.3c2.1,0,3.9,0,6,0c56.8,0,113.3,0,170.1,0c1.3,0,2.9,0,4.1,0c4.7-0.3,5.2-0.5,5.2-5.2
		c0-11.9,1-10.6-10.1-10.6c-128.6,0-257.4,0-386,0c-8.8,0-8.8,0-8.8,8.8c0,1.3,0,2.6,0,3.9c0,2.1,1,3.1,3.1,3.1c1.8,0,3.6,0,5.4,0
		c58.8,0,117.7,0,176.8,0c4.9,0,9.3,0.5,11.1,6.2c0,6-2.1,8.3-8,8.3c-64,0-128.3,0-192.3,0c-7,0-10.6-3.6-10.6-10.6
		c0-7.8,0-15.8,0-23.6c0-6.2,3.6-10.4,9.9-10.9c2.1-0.3,3.9-0.3,6-0.3c7,0,7,0,7-7.3c0-2.6,0-5.4,0-8c0.3-7.5,4.4-12.2,11.9-12.4
		c5.7-0.3,5.7-0.3,5.7-6.2c0-15.8,0-31.6,0-47.4c0-5.4-0.3-5.7-5.7-6c-8.3-0.3-11.9-4.1-12.2-12.4c0-2.9,0-6,0-8.8
		c0-5.7-0.3-5.7-5.7-5.7c-2.3,0-4.4,0-6.7-0.3c-7-0.8-10.4-4.9-10.6-11.9c0-7.8,0-15.6,0-23.3c0-6.7,3.9-10.6,10.6-10.9
		c3.9-0.3,7.8,0,11.9,0c4.9,0,5.4-0.5,5.4-5.2c0-18.9,0-38.1,0-57c0-3.4-1.3-4.9-4.7-4.7c-8,0.5-14.3-3.1-18.9-9.1
		c-8.8-10.9-5.2-28.8,7.3-36c9.3-5.4,18.7-10.9,28.3-16.3c44.8-25.9,90-51.8,134.8-77.8c9.1-5.2,18.4-10.6,27.5-15.8
		c9.9-5.7,19.7-6,29.8-0.3c13.2,7.8,26.7,15.3,39.9,23.1c41,23.6,81.7,47.2,122.6,70.8c8.8,5.2,17.6,10.1,26.4,15.3
		c7.3,4.1,12.2,9.3,12.7,17.9c0,3.1,0,6.2,0,9.3c-3.1,12.7-9.9,18.4-23.1,18.9c-3.1,0.3-4.4,1.3-4.4,4.4c0,19.2,0,38.6,0,57.8
		c0,3.1,1.3,4.7,4.4,4.7c4.1,0,8,0,12.2,0c6.2,0.3,8.8,2.1,10.9,8c0,9.9,0,19.7,0,29.6c-2.1,6.2-4.9,8.3-11.7,8.8
		c-2.3,0.3-4.4,0-6.7,0c-2.9,0-4.1,1.3-3.9,4.1c0,3.9,0,7.5,0,11.4c-0.3,7.3-4.1,11.1-11.1,11.7c-6.5,0.3-6.5,0.3-6.5,6.7
		c0,15.6,0,31.4,0,46.9c0,5.2,0,5.2,5.4,5.7c8,0.5,12.2,4.9,12.4,13c0,3.6,0,7.3,0,10.9c0,2.6,1,3.9,3.6,3.9s5.2,0,7.5,0
		C468.3,427.4,472.2,429.7,474,435.2z"/>
	<path class="st1" d="M432.2,207.5c0,19.2,0,38.4,0.3,57.5c0,3.1-1.8,2.6-3.6,2.6c-14,0-28,0-41.7,0c-37.6,0-75.2,0-112.8,0
		c-4.7,0-7.5,1.6-8.6,6c-4.9,2.1-10.1,2.1-15,0c-1-4.7-4.1-6.2-8.6-6c-51.6,0-103.4,0-155,0.3c-3.6,0-4.9-0.8-4.9-4.7
		c0.3-18.4,0.3-36.8,0.3-55.5c2.9-3.9,7.5-5.4,11.4-7.8c43.3-25.1,86.6-50,129.9-75.2c9.3-5.4,18.9-10.6,28.3-16.3
		c4.1-2.6,7.3-2.3,11.7,0.3c39.9,23.3,80.1,46.4,120.3,69.5c14.8,8.6,29.6,17.1,44.3,25.7C429.6,205,431.5,205.7,432.2,207.5z"/>
	<path class="st2" d="M450.6,185.8c-2.6,0.3-4.9-1.3-7.3-2.6c-59.6-34.5-119.5-69-179.1-103.4c-4.9-2.9-8.8-3.1-13.7,0
		c-59.6,34.7-119.2,69-179.1,103.4c-2.3,1.3-4.9,2.9-7.8,2.6c-4.4-0.3-7.8-2.3-9.3-6.5c-1.6-4.1-0.5-7.8,2.3-10.9
		c1-1,2.3-1.8,3.6-2.6C123,129.5,185.7,93.5,248.4,57.2c6.2-3.6,11.7-3.4,17.6,0c57.5,33.2,115.1,66.4,172.6,99.5
		c6,3.4,11.7,6.5,17.4,10.1c4.4,2.9,6,7.3,4.4,11.7C459.2,183.2,455.6,185.8,450.6,185.8z"/>
	<path class="st2" d="M250.8,273.7c4.9,0,10.1,0,15,0c1.6,5.7,2.9,6.7,9.1,6.7c60.7,0,121.1,0,181.7,0c3.9,0,5.2,0.8,4.7,4.7
		c-0.5,4.4,1.6,10.1-0.8,12.7c-2.6,2.9-8.6,0.8-13,0.8c-129.6,0-259.2,0-388.8,0.3c-4.4,0-5.7-1-5.2-5.2c0.5-4.1-1.3-9.9,0.8-12.2
		c2.3-2.6,8.3-0.8,12.4-0.8c58.3,0,116.7,0,175,0C247.7,280.4,249.2,279.4,250.8,273.7z"/>
	<path class="st2" d="M266.6,465.7c-5.4,0-10.6,0-16.1,0c-1.8-5.4-2.9-6.2-9.1-6.2c-61.2,0-122.4,0-183.5,0c-3.9,0-5.2-0.8-4.9-4.7
		c0.3-3.9,0.3-7.5,0-11.4c0-1.8,0.5-2.6,2.3-2.3c0.8,0,1.8,0,2.6,0c132.5,0,265.2,0,397.7,0c4.4,0,5.4,1.3,4.9,5.4
		c-0.5,4.4,1.8,10.1-1,12.4c-2.3,2.1-8,0.8-12.2,0.8c-57.5,0-115.1,0-172.4,0C270.7,459.5,267.9,461.1,266.6,465.7z"/>
	<path class="st3" d="M186.7,428.4c-5.2,0-10.4,0-15.6,0c-2.1,0-2.6-0.5-2.6-2.6c0.3-4.1,0-8.6,0-12.7c0-8.6-3.9-12.7-12.4-12.4
		c-4.1,0.3-5.7-0.8-5.4-5.4c0.3-16.9,0-33.7,0-50.8c0-5.7,0-5.7,5.7-5.7c8.3,0,11.9-3.9,11.9-12.2c0-3.6,0.3-7,0-10.6
		c-0.5-4.1,1.3-4.9,4.9-4.7c9.1,0.3,18.1,0.3,27,0c3.6,0,5.4,0.5,4.9,4.7c-0.3,3.6-0.3,7.3,0,10.9c0.3,8,3.9,11.7,11.9,11.9
		c5.7,0,5.7,0,5.7,6c0,17.4,0,34.7,0,52.1c0,3.1-0.8,3.9-3.9,3.9c-10.6,0-13.7,3.4-13.7,14c0,3.6,0,7.3,0,10.9
		c0,2.3-0.8,2.9-2.9,2.9C197.1,428.4,191.9,428.4,186.7,428.4z"/>
	<path class="st3" d="M327.5,428.4c-5.2,0-10.1,0-15.3,0c-2.1,0-2.9-0.5-2.9-2.9c0.3-4.1,0-8.3,0-12.2c0-8.8-3.9-13-12.7-12.7
		c-4.4,0.3-5.4-1-5.2-5.2c0.3-17.4,0.3-35,0-52.4c0-3.1,0.5-4.7,4.1-4.1c10.9,1,14.3-5.4,13.7-14c-0.3-3.6,0-7,0-10.6
		c0-2.1,0.5-3.1,2.9-3.1c10.4,0,20.7,0,31.4,0c2.3,0,2.9,1,2.6,3.1c0,4.4,0,8.8,0,13.2c0,7.3,3.9,11.1,11.1,11.4c1,0,2.3,0.3,3.4,0
		c2.6-0.5,3.4,0.8,3.4,3.4c0,18.4,0,36.8,0,55.5c0,2.9-1,3.4-3.4,3.1c-1-0.3-2.3,0-3.4,0c-7,0.3-10.9,4.4-11.1,11.1
		c0,4.7,0,9.3,0,14c0,2.1-0.5,2.6-2.6,2.6C338.1,428.4,332.9,428.4,327.5,428.4z"/>
	<path class="st4" d="M432.2,207.5c-17.6-10.1-35-20.2-52.6-30.3c-17.6-10.1-35-20.2-52.6-30.3c-17.4-10.1-34.5-20-51.8-30.1
		c-5.4-3.1-10.9-6.2-16.1-9.3c-1.8-1.3-3.4-0.3-4.7,0.5c-11.9,6.7-23.8,13.7-35.8,20.5c-17.6,10.1-35,20.2-52.6,30.3
		c-15,8.8-30.1,17.4-45.4,26.2c-13,7.5-25.9,14.8-38.6,22.3c-1-15.6-1-15.6,12.4-23.3c53.1-30.6,106-61.2,159.2-91.8
		c2.6-1.6,4.7-1.6,7.3,0c56.3,32.4,112.2,65.1,168.5,97.2c2.3,1.3,3.1,2.6,3.1,5.2C432.2,199.3,432.5,203.4,432.2,207.5z"/>
	<path class="st5" d="M419.5,353.2c0,15,0,30.1,0.3,45.1c0,1.8-0.5,2.3-2.3,2.3c-13.5-0.3-26.7-0.3-40.2-0.3
		c-0.8-7.5-0.3-15-0.3-22.8c0-7,0.3-14,0-21c-0.3-3.6,1.3-4.7,4.7-4.9c11.1,0,22.6,0,33.7,0C416.9,351.7,418.5,351.9,419.5,353.2z"
		/>
	<path class="st5" d="M278.5,353c0,15,0,30.1,0.3,45.1c0,1.8-0.5,2.3-2.3,2.3c-12.7,0-25.4,0-38.1,0c-1.8,0-2.3-0.5-2.3-2.3
		c0.3-15,0.3-30.1,0.3-45.1c1.6-1.3,3.4-1.3,5.2-1.3c10.6,0,21.3,0,32.1,0C275.1,351.7,276.9,351.7,278.5,353z"/>
	<path class="st5" d="M137.2,400.4c-13.5,0-26.7,0.3-40.2,0.3c-1.8,0-2.3-0.5-2.3-2.3c0-15,0.3-30.1,0.3-45.1
		c1.6-1.3,3.4-1.3,5.2-1.3c10.6,0,21,0,31.6,0c5.4,0,5.7,0.5,5.7,6c0,12.7,0,25.7,0,38.4C137.7,397.6,138,399.1,137.2,400.4z"/>
	<path class="st1" d="M398.5,428.4c-12.2,0-24.1,0-36.3,0c-2.9,0-3.6-0.8-3.4-3.6c0.3-3.6-1-8.3,0.8-10.6c2.1-2.3,6.7-0.8,10.4-0.8
		c21.3,0,42.5,0,63.8,0c2.9,0,4.1,0.5,3.9,3.6c-0.3,3.6,1,8.3-0.8,10.6c-1.8,2.3-6.7,0.8-10.4,0.8
		C417.2,428.4,407.9,428.4,398.5,428.4z"/>
	<path class="st1" d="M116.2,428.4c-11.9,0-23.6,0-35.5,0c-2.9,0-4.1-0.3-3.9-3.6c0.3-3.6-1.3-8.6,0.5-10.6
		c2.1-2.3,7.3-0.8,10.9-0.8c21,0,42,0,63,0c3.1,0,4.7,0.5,4.4,4.1c-0.5,3.4,1,8-0.8,10.1c-1.8,2.3-6.5,0.8-10.1,0.8
		C135.4,428.4,125.8,428.4,116.2,428.4z"/>
	<path class="st1" d="M257.2,428.4c-11.9,0-23.8,0-35.8,0c-2.9,0-3.6-0.8-3.4-3.6c0.3-3.6-1.6-8.3,0.8-10.6c2.1-2.3,7-0.8,10.6-0.8
		c21,0,42.3,0,63.3,0c3.1,0,4.4,0.5,4.1,3.9c-0.5,3.6,1.6,8.3-0.8,10.4c-2.1,1.8-6.7,0.5-10.1,0.5
		C276.2,428.4,266.8,428.4,257.2,428.4z"/>
	<path class="st4" d="M77.3,320.1c-0.5-8.8-0.5-8.8,8-8.8c22,0,44.1,0,66.1,0c3.1,0,4.7,0.5,4.1,4.1c-0.5,3.4,1,7-0.8,10.4
		c-1.6-3.9-4.7-4.4-8.3-4.4c-20.7,0.3-41.7,0-62.5,0C81.7,321.3,79.4,321.9,77.3,320.1z"/>
	<path class="st4" d="M359.6,326c-1.8-4.4-0.5-9.1-0.5-13.5c0-1.8,2.3-1,3.6-1c17.4,0,34.5,0,51.8,0c6.2,0,12.7,0.3,18.9,0
		c3.4-0.3,4.4,1,3.9,4.1c-0.3,1.6,0,3.1-0.3,4.7c-2.1,1.8-4.4,1.3-6.7,1.3c-20.7,0-41.7,0-62.5,0C364.3,321.3,361.2,321.9,359.6,326
		z"/>
	<path class="st6" d="M137.2,400.4c0-14.3-0.3-28.8,0-43c0-3.4-0.8-4.4-4.1-4.4c-12.7,0.3-25.4,0-38.1,0c0-3.9,0-7.5-0.3-11.4
		c0-2.1,0.5-2.9,2.9-2.9c12.4,0,24.9,0,37.6,0c1.8,0,2.9,0.3,2.9,2.6c0,19.4,0,38.9,0,58.1C138,399.9,137.5,400.2,137.2,400.4z"/>
	<path class="st6" d="M419.5,353.2c-12.7,0-25.7,0-38.4,0c-2.9,0-3.9,0.8-3.9,3.9c0,14.5,0,29,0,43.6c-1.3-1-0.8-2.3-0.8-3.4
		c0-18.1,0-36,0-54.2c0-3.1,0.8-4.1,3.9-3.9c11.9,0.3,23.8,0.3,36,0c2.6,0,3.4,0.8,3.4,3.4C419.5,345.7,419.8,349.3,419.5,353.2z"/>
	<path class="st4" d="M218.4,320.1c-0.8-8.8-0.8-8.8,7.5-8.8c21.8,0,43.6,0.3,65.3,0c4.4,0,6,1.3,5.4,5.4c-0.3,1-0.3,2.3-0.3,3.4
		c-1.6,1.3-3.6,1.3-5.7,1.3c-22.3,0-44.6,0-66.9,0C222,321.6,219.9,321.6,218.4,320.1z"/>
	<path class="st6" d="M278.5,353c-14.3,0-28.3,0-42.5,0c0-3.9,0-7.8-0.3-11.7c0-1.8,0.5-2.3,2.3-2.3c12.7,0,25.4,0,37.8,0
		c1.8,0,2.6,0.8,2.3,2.3C278.5,345.2,278.5,349.1,278.5,353z"/>
	<path class="st7" d="M218.4,320.1c25.9,0,52.1,0,78,0c0.5,6,0.5,6-5.2,6c-22.6,0-45.1,0-67.7,0C217.8,326,217.8,326,218.4,320.1z"
		/>
	<path class="st1" d="M359.6,326c0.3-6.2-0.8-5.7,6-5.7c23.8,0,47.7,0,71.8,0c0,1,0,2.3,0.3,3.4c0.3,1.8-0.3,2.6-2.6,2.6
		C409.9,326,384.8,326,359.6,326z"/>
	<path class="st1" d="M77.3,320.1c23.8,0,47.7,0,71.8,0c7,0,6-0.5,6,5.7c-18.1,0-36.6,0.3-54.7,0.3c-5.7,0-11.4,0-17.4,0
		C77.1,326,77.1,326,77.3,320.1z"/>
	<path class="st0" d="M145.3,217.4c0-7.5,0-15,0-22.3c0-6.2,2.3-8.3,8.3-8.6c4.1,0,8,0,12.2,0c13,0.3,21.3,12.4,16.3,24.4
		c-0.8,2.3-0.5,3.4,1,4.9c5.2,6.2,6.5,13.2,3.1,20.7c-3.4,7.3-9.1,11.4-17.1,11.7c-5.4,0.3-10.9,0.3-16.6,0.3
		c-5.2,0-7.3-2.3-7.5-7.5C145,233.2,145.3,225.2,145.3,217.4z"/>
	<path class="st0" d="M297.9,221.8c0-9.1,0-17.1,0-25.4c0-1.3,0-2.6,0-3.9c0.3-3.4,3.1-6.2,6.5-6c3.4,0,6.2,2.6,6.2,6.2
		c0.3,15.8,0.5,31.6,0.5,47.4c0,3.6-1.6,6.7-5.4,7.8c-3.6,1-6.2-1-8-3.9c-6.7-9.9-13.5-19.4-21-30.3c0,9.9,0,18.4,0,27.2
		c0,3.1-0.8,5.7-3.6,7c-4.1,2.3-9.1-0.8-9.1-5.7c0-16.3,0-32.4,0-48.7c0-3.1,1.3-5.4,4.4-6.5c3.4-1,5.7,0.5,7.5,3.1
		c6.7,9.9,13.5,19.7,20.5,29.6C296.7,220,296.9,220.5,297.9,221.8z"/>
	<path class="st0" d="M250.8,241.8c0,3.4-1.3,5.4-4.1,6.5c-2.9,0.8-5.2,0.3-7-2.3c-0.5-0.5-0.8-1.3-1-1.8c-1-7.3-5.7-8.8-11.9-7.5
		c-0.8,0-1.3,0-2.1,0c-6.7-1-11.4,0.3-13,8c-0.8,3.6-4.9,4.9-8.3,3.6c-3.1-1.3-4.7-4.7-3.4-8.3c6-16.1,12.2-31.9,18.1-48
		c1.3-3.1,3.6-5.2,7-5.2c3.4,0,5.7,1.8,7,4.9c6,16.1,12.2,31.9,18.1,48C250.5,240.5,250.5,241.2,250.8,241.8z"/>
	<path class="st0" d="M342.3,229.8c0,4.7,0,8.3,0,11.9c-0.3,4.4-2.6,6.7-6.5,6.7c-3.6,0-6.2-2.6-6.2-6.5c0-16.6,0-32.9,0-49.5
		c0-3.9,2.9-6.5,6.5-6.5s6,2.6,6.2,6.5c0.3,3.1,0,6.5,0,10.6c5.7-5.2,10.6-9.9,15.8-14.5c2.3-2.1,5.2-2.9,8-1c2.6,1.6,3.4,4.1,2.9,7
		c-0.3,1.8-1.8,3.1-3.1,4.4c-5.7,5.2-11.1,10.4-16.9,15.3c-1.8,1.6-1.8,2.6,0,4.1c6.2,5.7,12.2,11.7,18.4,17.6
		c3.9,3.9,4.7,7.8,2.1,10.6c-2.9,2.9-6.7,2.6-10.6-1.3C353.4,240.5,348.2,235.5,342.3,229.8z"/>
	<path class="st0" d="M231.6,140.1c0.3-14.8,12.4-26.4,27-26.2c14.8,0.3,27,13,26.4,27.2c-0.5,14.8-12.7,26.4-27.2,26.2
		C243,167.1,231.3,154.9,231.6,140.1z"/>
	<path class="st1" d="M158,228.8c0-6.7,0-6.7,6.7-6.7c1.6,0,3.1,0,4.7,0c3.6,0.5,6,3.6,6,7c-0.3,3.6-2.9,6.2-6.5,6.5
		c-1.3,0-2.6,0-3.9,0C158,235.8,158,235.8,158,228.8z"/>
	<path class="st8" d="M158,203.4c-1.3-4.7,2.1-4.1,5.2-3.9c4.9,0,7.8,1.8,7.5,5.2c0,3.4-2.6,4.9-8.6,4.9
		C158,209.4,158,209.4,158,203.4z"/>
	<path class="st8" d="M225.1,209.1c2.1,5.2,3.6,9.9,5.4,14.5c-3.9,0-7.3,0-11.1,0C221.2,219,223,214.3,225.1,209.1z"/>
	<path class="st5" d="M271.8,139.9c0.5,8.6-5.4,14.8-14,14.5c-8.3-0.3-14-6.7-13.2-15.6c4.7-5.7,11.1-6.2,17.6-4.9
		C266.1,135,269.7,136.3,271.8,139.9z"/>
	<path class="st9" d="M271.8,139.9c-8.8-6.7-17.9-6.7-27-0.8c0.8-7.3,6.5-12.2,14-12.2C266.1,127.2,271.5,132.4,271.8,139.9z"/>
</g>
</svg>
