<?xml version="1.0" encoding="utf-8"?>
<!-- Generator: Adobe Illustrator 26.2.1, SVG Export Plug-In . SVG Version: 6.00 Build 0)  -->
<svg version="1.1" id="Capa_1" xmlns="http://www.w3.org/2000/svg" xmlns:xlink="http://www.w3.org/1999/xlink" x="0px" y="0px"
	 viewBox="0 0 417.5 429.6" style="enable-background:new 0 0 417.5 429.6;" xml:space="preserve">
<style type="text/css">
	.st0{fill:#8CC5ED;}
	.st1{fill:#71B9E5;}
	.st2{fill:#A4CFF0;}
	.st3{fill:#A2CFF0;}
	.st4{fill:#ACD3F2;}
	.st5{fill:#8C8A93;}
	.st6{fill:#C7C6CC;}
	.st7{fill:#676767;}
	.st8{fill:#F2F2F2;}
	.st9{fill:#E7E6E6;}
</style>
<g>
	<path class="st0" d="M154.5,333.4c-14.9-0.9-29.3-4.1-43.4-9.2c-17-6.2-32.6-14.9-46.6-26.3c-16.8-13.6-30.4-30-40.7-49.1
		C15,232.5,9.2,215.2,6.1,197c-0.6-3.5-0.3-7.1-1.8-10.4c0-1.6,0-3.2,0-4.8c0.6-2.4,0.6-4.8,0-7.2c0-1.9,0-3.7,0-5.6
		c0.6-2.4,0.6-4.8,0-7.2c0-1.6,0-3.2,0-4.8c0.8-10.7,2.6-21.3,5.8-31.5c7.5-24.1,19.5-45.5,36.7-64c13.5-14.6,29.1-26.4,46.8-35.2
		c14.7-7.3,30.1-12.7,46.4-15c3.9-0.5,7.9-0.7,11.9-0.7c1.2,0,2.4,0,3.7,0c20.2,1.6,39.1,7.6,56.9,16.9c13.5,7,25.7,15.8,36.9,26.3
		c13.6,12.8,24.7,27.4,33.2,44c4.5,8.8,8.3,17.8,11,27.3c0.6,2.3,2.1,4.7,0.6,7.3c-2.2-0.1-2.2-2.1-2.7-3.4
		c-4.8-13.2-11.2-25.5-19.7-36.7c-11.5-15.2-25.6-27.2-42.2-36.5C213.9,47.1,196.8,42,179,40.3c-8.7-0.8-17.5-0.8-26.2,0.2
		c-28.4,3.1-53.3,14-74.6,32.9c-16,14.3-27.9,31.6-35.6,51.7c-7,18.3-9.7,37.3-8.3,56.7c1,14.6,4.6,28.8,10.4,42.4
		c6.5,15.2,15.5,28.9,27.1,40.5c19.9,19.9,43.6,32.8,71.5,37.5c4.2,0.7,8.4,1.4,12.6,1.8c5.5,1,11.1,0.7,16.7,0.3
		c11.3-0.7,22.4-2.5,33.2-6c18.5-5.9,34.9-15.3,49.3-28.4c15.1-13.7,26.3-30.1,34.1-48.9c0.8-2,1.4-4,2.2-6c0.5-1.3,0.8-2.9,2.6-3.1
		c1.6,1.7,0.7,3.6,0.2,5.3c-6.6,21.4-16.4,41.2-30.8,58.4c-15.4,18.4-33.8,32.9-55.5,43.3c-13.8,6.6-28.2,11-43.2,13.7
		C161.3,333.3,157.9,332.7,154.5,333.4z"/>
	<path class="st1" d="M154.5,333.4c7.8-1.8,15.8-2.5,23.6-4.6c16.6-4.5,32.3-11.1,46.8-20.4c11.9-7.7,22.7-16.6,32.2-27
		c14.5-15.7,25.4-33.6,32.4-53.8c1.8-5.1,4.6-9.9,4.5-15.6c-1.5-2-0.5-4.1,0.1-6.1c3.1-11.9,4.7-24,4.4-36.3
		c-0.2-10.5-1.7-20.9-4.2-31.1c-0.5-2-1.7-4-0.2-6.1c-0.9-8.1-4.1-15.6-7.2-23.1c-5.4-13-12.4-25.2-21.2-36.3
		c-9-11.3-19.2-21.4-30.8-30.2c-17-13-36-21.9-56.6-27.3c-6.6-1.8-13.4-3.2-20.2-3.7c-0.8-0.1-1.6-0.1-2.1-0.8
		c0.1-0.5,0.6-0.5,0.8-0.8c7.7,0,15.4,0,23.1,0c6.2,1.1,12.4,2,18.6,3.2c26.8,5.5,50.7,17,71.6,34.6c24.6,20.6,41.5,46.4,51,76.9
		c3.8,12.2,5.8,24.7,6.6,37.4c1.5,23.7-2.2,46.5-10.7,68.5c-6.7,17.2-16,32.9-28.2,46.8c-1,1.2-1.9,2.5-2.9,3.8
		c-2.6,4.3-6,7.8-10.3,10.3c-7.6,5.8-14.8,12.1-22.9,17.1c-20.6,12.8-42.8,21-66.9,23.7C175.3,333.9,164.9,335,154.5,333.4z"/>
	<path class="st2" d="M4.3,161.9c1.3,2.4,1.3,4.8,0,7.2C4.3,166.7,4.3,164.3,4.3,161.9z"/>
	<path class="st3" d="M4.3,174.7c1.3,2.4,1.3,4.8,0,7.2C4.3,179.5,4.3,177.1,4.3,174.7z"/>
	<path class="st4" d="M151.9,11c0.1-0.3,0.1-0.5,0.1-0.8c1.6,0,3.2,0,4.8,0c-0.3,0.3-0.5,0.5-0.8,0.8C154.6,11,153.3,11,151.9,11z"
		/>
	<path class="st5" d="M300.4,296.1c2.1,0.9,2.8-1.1,3.8-2.1c7.4-7.2,12.3-7.3,19.7,0.1c28,28,56,56,84,84c7.1,7.1,7,12.2-0.1,19.4
		c-4.3,4.3-8.7,8.6-13.1,12.8c-1.6,0-1.2-1.3-1-2c1.4-4.4-0.8-7.7-3.3-10.9c-0.7-0.8-1.4-1.6-2.2-2.3
		c-27.2-27.2-54.5-54.5-81.7-81.7c-1.7-1.7-3.5-3.3-5.6-4.4c-2.3-1.2-4.6-1.9-7.3-1.2c-1.1,0.3-3,1.5-3.1-1.2
		C293.1,302.4,297,299.5,300.4,296.1z"/>
	<path class="st6" d="M290.7,306.6c0.2,0.8,0.6,1.1,1.4,0.8c5.9-2.3,10.2,0.7,14.1,4.6c24.6,24.6,49.2,49.2,73.8,73.8
		c2.3,2.3,4.6,4.8,7.1,7c5.2,4.8,9.8,9.7,7.6,17.6c-1.9,2-3.8,4.1-5.9,5.9c-4,3.5-9.8,3.5-13.9,0.1c-0.9-0.8-1.7-1.7-2.6-2.5
		c-28.2-28.2-56.4-56.4-84.6-84.6c-6.7-6.7-6.7-11.5-0.2-18.4c1.2-1.3,2.4-2.5,2.5-4.4C290.3,306.1,290.6,306.2,290.7,306.6z"/>
	<path class="st7" d="M290.7,306.6c-0.2-0.1-0.4-0.2-0.7-0.2c-4.8-4.8-9.6-9.7-14.4-14.5c3.4-3.4,6.9-6.9,10.3-10.3
		c4.8,4.8,9.6,9.7,14.4,14.5C298.3,300.6,294.2,303.3,290.7,306.6z"/>
	<path class="st8" d="M155.9,304.8c-14.6-0.6-28.6-4.4-41.9-10c-16.3-6.9-30.8-16.7-43.1-29.4c-17.3-17.9-29.3-39-34.6-63.5
		c-8.7-40.6-0.9-77.8,24.2-110.9c18.7-24.6,43.3-40.7,73.4-48.2c6.2-1.5,12.4-2.8,18.8-3.1c7.1-1,14,0.2,20.8,2
		c27.3,7.1,50.2,21.1,68.8,42.4c16,18.3,26.1,39.4,30.7,63.1c4.6,23.7,2.5,47.1-5.5,69.9c-4.8,13.7-11.7,26.2-20.6,37.6
		c-14,18-31.5,31.5-52.3,40.6c-9.4,4.1-19.2,7-29.3,9.1C162.2,304.9,159.1,304.8,155.9,304.8z"/>
	<path class="st9" d="M155.9,304.8c10.3-1.6,20.6-3.6,30.4-7.3c16.3-6.2,31-14.8,44-26.5c11.7-10.5,21.1-22.7,28.5-36.4
		c7-12.9,11.3-26.7,13.8-41.2c1.8-10.6,2-21.2,1.4-31.7c-0.8-13.5-4.4-26.6-9.3-39.2c-4.8-12.3-11.5-23.6-19.8-33.8
		c-14.9-18.4-33.4-32.1-55.5-40.7c-11.8-4.5-23.8-8.1-36.6-8.1c4.3-1.8,9-1.1,13.3-1c28.7,0.2,55,8.4,78.4,25.3
		c17.6,12.8,31.3,29,41,48.3c3.3,6.5,5.7,13.4,8.5,20.1c2.1,9.5,4.4,19,5.1,28.8c0.8,9.5,0.4,19-0.6,28.5
		c-0.8,7.6-3.3,14.9-4.6,22.4c-3.2,6.4-5.2,13.3-8.4,19.7c-6.5,12.9-14.7,24.7-25,34.7c-20.9,20.5-45.8,33.5-75.1,37.5
		c-8.8,1.2-17.7,1.7-26.6,1.5C157.9,305.5,156.8,305.7,155.9,304.8z"/>
</g>
</svg>
