<?xml version="1.0" encoding="UTF-8" standalone="no"?>
<!DOCTYPE svg PUBLIC "-//W3C//DTD SVG 1.1//EN"
 "http://www.w3.org/Graphics/SVG/1.1/DTD/svg11.dtd">
<!-- Generated by graphviz version 2.47.0 (20210316.0004)
 -->
<!-- Title: dependencies Pages: 1 -->
<svg width="1578pt" height="284pt"
 viewBox="0.00 0.00 1578.00 284.00" xmlns="http://www.w3.org/2000/svg" xmlns:xlink="http://www.w3.org/1999/xlink">
<g id="graph0" class="graph" transform="scale(1 1) rotate(0) translate(4 280)">
<title>dependencies</title>
<polygon fill="white" stroke="transparent" points="-4,4 -4,-280 1574,-280 1574,4 -4,4"/>
<text text-anchor="start" x="764.01" y="-42.4" font-family="Times-12" font-weight="bold" font-size="14.00">Legend</text>
<polygon fill="#ffffb3" stroke="transparent" points="551,-10 551,-30 571,-30 571,-10 551,-10"/>
<text text-anchor="start" x="574.63" y="-15.4" font-family="Times-12" font-size="14.00"> &#160;Declarations</text>
<polygon fill="#8dd3c7" stroke="transparent" points="664,-10 664,-30 684,-30 684,-10 664,-10"/>
<text text-anchor="start" x="687.73" y="-15.4" font-family="Times-12" font-size="14.00"> &#160;Module</text>
<polygon fill="#80b1d3" stroke="transparent" points="750,-10 750,-30 770,-30 770,-10 750,-10"/>
<text text-anchor="start" x="773.78" y="-15.4" font-family="Times-12" font-size="14.00"> &#160;Bootstrap</text>
<polygon fill="#fdb462" stroke="transparent" points="847,-10 847,-30 867,-30 867,-10 847,-10"/>
<text text-anchor="start" x="870.67" y="-15.4" font-family="Times-12" font-size="14.00"> &#160;Providers</text>
<polygon fill="#fb8072" stroke="transparent" points="943,-10 943,-30 963,-30 963,-10 943,-10"/>
<text text-anchor="start" x="966.73" y="-15.4" font-family="Times-12" font-size="14.00"> &#160;Exports</text>
<g id="clust1" class="cluster">
<title>cluster_AppModule</title>
<polygon fill="none" stroke="black" stroke-dasharray="1,5" points="8,-70 8,-268 1562,-268 1562,-70 8,-70"/>
</g>
<g id="clust10" class="cluster">
<title>cluster_AppModule_imports</title>
<polygon fill="none" stroke="black" points="1410,-78 1410,-130 1554,-130 1554,-78 1410,-78"/>
</g>
<g id="clust12" class="cluster">
<title>cluster_AppModule_bootstrap</title>
<polygon fill="none" stroke="black" points="734,-208 734,-260 858,-260 858,-208 734,-208"/>
</g>
<g id="clust13" class="cluster">
<title>cluster_AppModule_providers</title>
<polygon fill="none" stroke="black" points="1068,-78 1068,-130 1402,-130 1402,-78 1068,-78"/>
</g>
<g id="clust2" class="cluster">
<title>cluster_AppModule_declarations</title>
<polygon fill="none" stroke="black" points="16,-78 16,-130 1060,-130 1060,-78 16,-78"/>
</g>
<!-- AppComponent -->
<g id="node1" class="node">
<title>AppComponent</title>
<polygon fill="#ffffb3" stroke="black" points="1051.94,-122 946.06,-122 946.06,-86 1051.94,-86 1051.94,-122"/>
<text text-anchor="middle" x="999" y="-99.8" font-family="Times,serif" font-size="14.00">AppComponent</text>
</g>
<!-- AppModule -->
<g id="node8" class="node">
<title>AppModule</title>
<polygon fill="#8dd3c7" stroke="black" points="837.66,-187 834.66,-191 813.66,-191 810.66,-187 754.34,-187 754.34,-151 837.66,-151 837.66,-187"/>
<text text-anchor="middle" x="796" y="-164.8" font-family="Times,serif" font-size="14.00">AppModule</text>
</g>
<!-- AppComponent&#45;&gt;AppModule -->
<g id="edge1" class="edge">
<title>AppComponent&#45;&gt;AppModule</title>
<path fill="none" stroke="black" d="M999,-122.01C999,-138.05 999,-159 999,-159 999,-159 848.06,-159 848.06,-159"/>
<polygon fill="black" stroke="black" points="848.06,-155.5 838.06,-159 848.06,-162.5 848.06,-155.5"/>
</g>
<!-- CarritoComponent -->
<g id="node2" class="node">
<title>CarritoComponent</title>
<polygon fill="#ffffb3" stroke="black" points="928.49,-122 807.51,-122 807.51,-86 928.49,-86 928.49,-122"/>
<text text-anchor="middle" x="868" y="-99.8" font-family="Times,serif" font-size="14.00">CarritoComponent</text>
</g>
<!-- CarritoComponent&#45;&gt;AppModule -->
<g id="edge2" class="edge">
<title>CarritoComponent&#45;&gt;AppModule</title>
<path fill="none" stroke="black" d="M822.67,-122.11C822.67,-122.11 822.67,-140.99 822.67,-140.99"/>
<polygon fill="black" stroke="black" points="819.17,-140.99 822.67,-150.99 826.17,-140.99 819.17,-140.99"/>
</g>
<!-- CarruselComponent -->
<g id="node3" class="node">
<title>CarruselComponent</title>
<polygon fill="#ffffb3" stroke="black" points="789.25,-122 660.75,-122 660.75,-86 789.25,-86 789.25,-122"/>
<text text-anchor="middle" x="725" y="-99.8" font-family="Times,serif" font-size="14.00">CarruselComponent</text>
</g>
<!-- CarruselComponent&#45;&gt;AppModule -->
<g id="edge3" class="edge">
<title>CarruselComponent&#45;&gt;AppModule</title>
<path fill="none" stroke="black" d="M771.77,-122.11C771.77,-122.11 771.77,-140.99 771.77,-140.99"/>
<polygon fill="black" stroke="black" points="768.27,-140.99 771.77,-150.99 775.27,-140.99 768.27,-140.99"/>
</g>
<!-- DetalleProductoComponent -->
<g id="node4" class="node">
<title>DetalleProductoComponent</title>
<polygon fill="#ffffb3" stroke="black" points="642.3,-122 469.7,-122 469.7,-86 642.3,-86 642.3,-122"/>
<text text-anchor="middle" x="556" y="-99.8" font-family="Times,serif" font-size="14.00">DetalleProductoComponent</text>
</g>
<!-- DetalleProductoComponent&#45;&gt;AppModule -->
<g id="edge4" class="edge">
<title>DetalleProductoComponent&#45;&gt;AppModule</title>
<path fill="none" stroke="black" d="M556,-122.01C556,-138.05 556,-159 556,-159 556,-159 744.2,-159 744.2,-159"/>
<polygon fill="black" stroke="black" points="744.2,-162.5 754.2,-159 744.2,-155.5 744.2,-162.5"/>
</g>
<!-- HeaderComponent -->
<g id="node5" class="node">
<title>HeaderComponent</title>
<polygon fill="#ffffb3" stroke="black" points="451.74,-122 330.26,-122 330.26,-86 451.74,-86 451.74,-122"/>
<text text-anchor="middle" x="391" y="-99.8" font-family="Times,serif" font-size="14.00">HeaderComponent</text>
</g>
<!-- HeaderComponent&#45;&gt;AppModule -->
<g id="edge5" class="edge">
<title>HeaderComponent&#45;&gt;AppModule</title>
<path fill="none" stroke="black" d="M391,-122.27C391,-140.56 391,-166 391,-166 391,-166 744.18,-166 744.18,-166"/>
<polygon fill="black" stroke="black" points="744.18,-169.5 754.18,-166 744.18,-162.5 744.18,-169.5"/>
</g>
<!-- ProductoComponent -->
<g id="node6" class="node">
<title>ProductoComponent</title>
<polygon fill="#ffffb3" stroke="black" points="311.88,-122 180.12,-122 180.12,-86 311.88,-86 311.88,-122"/>
<text text-anchor="middle" x="246" y="-99.8" font-family="Times,serif" font-size="14.00">ProductoComponent</text>
</g>
<!-- ProductoComponent&#45;&gt;AppModule -->
<g id="edge6" class="edge">
<title>ProductoComponent&#45;&gt;AppModule</title>
<path fill="none" stroke="black" d="M246,-122.13C246,-142.57 246,-173 246,-173 246,-173 744.21,-173 744.21,-173"/>
<polygon fill="black" stroke="black" points="744.21,-176.5 754.21,-173 744.21,-169.5 744.21,-176.5"/>
</g>
<!-- ProductosComponent -->
<g id="node7" class="node">
<title>ProductosComponent</title>
<polygon fill="#ffffb3" stroke="black" points="161.83,-122 24.17,-122 24.17,-86 161.83,-86 161.83,-122"/>
<text text-anchor="middle" x="93" y="-99.8" font-family="Times,serif" font-size="14.00">ProductosComponent</text>
</g>
<!-- ProductosComponent&#45;&gt;AppModule -->
<g id="edge7" class="edge">
<title>ProductosComponent&#45;&gt;AppModule</title>
<path fill="none" stroke="black" d="M93,-122.01C93,-144.49 93,-180 93,-180 93,-180 744.13,-180 744.13,-180"/>
<polygon fill="black" stroke="black" points="744.13,-183.5 754.13,-180 744.13,-176.5 744.13,-183.5"/>
</g>
<!-- AppComponent  -->
<g id="node10" class="node">
<title>AppComponent </title>
<polygon fill="#80b1d3" stroke="black" points="850.44,-252 741.56,-252 741.56,-216 850.44,-216 850.44,-252"/>
<text text-anchor="middle" x="796" y="-229.8" font-family="Times,serif" font-size="14.00">AppComponent </text>
</g>
<!-- AppModule&#45;&gt;AppComponent  -->
<g id="edge9" class="edge">
<title>AppModule&#45;&gt;AppComponent </title>
<path fill="none" stroke="black" stroke-dasharray="1,5" d="M796,-187.11C796,-187.11 796,-205.99 796,-205.99"/>
<polygon fill="black" stroke="black" points="792.5,-205.99 796,-215.99 799.5,-205.99 792.5,-205.99"/>
</g>
<!-- AppRoutingModule -->
<g id="node9" class="node">
<title>AppRoutingModule</title>
<polygon fill="#8dd3c7" stroke="black" points="1546.27,-122 1543.27,-126 1522.27,-126 1519.27,-122 1417.73,-122 1417.73,-86 1546.27,-86 1546.27,-122"/>
<text text-anchor="middle" x="1482" y="-99.8" font-family="Times,serif" font-size="14.00">AppRoutingModule</text>
</g>
<!-- AppRoutingModule&#45;&gt;AppModule -->
<g id="edge8" class="edge">
<title>AppRoutingModule&#45;&gt;AppModule</title>
<path fill="none" stroke="black" d="M1482,-122.01C1482,-144.49 1482,-180 1482,-180 1482,-180 847.88,-180 847.88,-180"/>
<polygon fill="black" stroke="black" points="847.88,-176.5 837.88,-180 847.88,-183.5 847.88,-176.5"/>
</g>
<!-- CargandoService -->
<g id="node11" class="node">
<title>CargandoService</title>
<ellipse fill="#fdb462" stroke="black" cx="1316" cy="-104" rx="77.57" ry="18"/>
<text text-anchor="middle" x="1316" y="-99.8" font-family="Times,serif" font-size="14.00">CargandoService</text>
</g>
<!-- CargandoService&#45;&gt;AppModule -->
<g id="edge10" class="edge">
<title>CargandoService&#45;&gt;AppModule</title>
<path fill="none" stroke="black" d="M1316,-122.13C1316,-142.57 1316,-173 1316,-173 1316,-173 847.67,-173 847.67,-173"/>
<polygon fill="black" stroke="black" points="847.67,-169.5 837.67,-173 847.67,-176.5 847.67,-169.5"/>
</g>
<!-- LoadingService -->
<g id="node12" class="node">
<title>LoadingService</title>
<ellipse fill="#fdb462" stroke="black" cx="1148" cy="-104" rx="72.35" ry="18"/>
<text text-anchor="middle" x="1148" y="-99.8" font-family="Times,serif" font-size="14.00">LoadingService</text>
</g>
<!-- LoadingService&#45;&gt;AppModule -->
<g id="edge11" class="edge">
<title>LoadingService&#45;&gt;AppModule</title>
<path fill="none" stroke="black" d="M1148,-122.27C1148,-140.56 1148,-166 1148,-166 1148,-166 847.76,-166 847.76,-166"/>
<polygon fill="black" stroke="black" points="847.76,-162.5 837.76,-166 847.76,-169.5 847.76,-162.5"/>
</g>
</g>
</svg>
