<?xml version="1.0" encoding="UTF-8" standalone="no"?>
<!DOCTYPE svg PUBLIC "-//W3C//DTD SVG 1.1//EN"
 "http://www.w3.org/Graphics/SVG/1.1/DTD/svg11.dtd">
<!-- Generated by graphviz version 2.47.0 (20210316.0004)
 -->
<!-- Title: dependencies Pages: 1 -->
<svg width="1716pt" height="284pt"
 viewBox="0.00 0.00 1716.00 284.00" xmlns="http://www.w3.org/2000/svg" xmlns:xlink="http://www.w3.org/1999/xlink">
<g id="graph0" class="graph" transform="scale(1 1) rotate(0) translate(4 280)">
<title>dependencies</title>
<polygon fill="white" stroke="transparent" points="-4,4 -4,-280 1712,-280 1712,4 -4,4"/>
<text text-anchor="start" x="833.01" y="-42.4" font-family="Times-12" font-weight="bold" font-size="14.00">Legend</text>
<polygon fill="#ffffb3" stroke="transparent" points="620,-10 620,-30 640,-30 640,-10 620,-10"/>
<text text-anchor="start" x="643.63" y="-15.4" font-family="Times-12" font-size="14.00"> &#160;Declarations</text>
<polygon fill="#8dd3c7" stroke="transparent" points="733,-10 733,-30 753,-30 753,-10 733,-10"/>
<text text-anchor="start" x="756.73" y="-15.4" font-family="Times-12" font-size="14.00"> &#160;Module</text>
<polygon fill="#80b1d3" stroke="transparent" points="819,-10 819,-30 839,-30 839,-10 819,-10"/>
<text text-anchor="start" x="842.78" y="-15.4" font-family="Times-12" font-size="14.00"> &#160;Bootstrap</text>
<polygon fill="#fdb462" stroke="transparent" points="916,-10 916,-30 936,-30 936,-10 916,-10"/>
<text text-anchor="start" x="939.67" y="-15.4" font-family="Times-12" font-size="14.00"> &#160;Providers</text>
<polygon fill="#fb8072" stroke="transparent" points="1012,-10 1012,-30 1032,-30 1032,-10 1012,-10"/>
<text text-anchor="start" x="1035.73" y="-15.4" font-family="Times-12" font-size="14.00"> &#160;Exports</text>
<g id="clust1" class="cluster">
<title>cluster_AppModule</title>
<polygon fill="none" stroke="black" stroke-dasharray="1,5" points="8,-70 8,-268 1562,-268 1562,-70 8,-70"/>
</g>
<g id="clust2" class="cluster">
<title>cluster_AppModule_declarations</title>
<polygon fill="none" stroke="black" points="510,-78 510,-130 1554,-130 1554,-78 510,-78"/>
</g>
<g id="clust10" class="cluster">
<title>cluster_AppModule_imports</title>
<polygon fill="none" stroke="black" points="358,-78 358,-130 502,-130 502,-78 358,-78"/>
</g>
<g id="clust12" class="cluster">
<title>cluster_AppModule_bootstrap</title>
<polygon fill="none" stroke="black" points="750,-208 750,-260 874,-260 874,-208 750,-208"/>
</g>
<g id="clust13" class="cluster">
<title>cluster_AppModule_providers</title>
<polygon fill="none" stroke="black" points="16,-78 16,-130 350,-130 350,-78 16,-78"/>
</g>
<g id="clust20" class="cluster">
<title>cluster_PipesModule</title>
<polygon fill="none" stroke="black" stroke-dasharray="1,5" points="1570,-70 1570,-268 1700,-268 1700,-70 1570,-70"/>
</g>
<g id="clust21" class="cluster">
<title>cluster_PipesModule_declarations</title>
<polygon fill="none" stroke="black" points="1580,-78 1580,-130 1690,-130 1690,-78 1580,-78"/>
</g>
<g id="clust24" class="cluster">
<title>cluster_PipesModule_exports</title>
<polygon fill="none" stroke="black" points="1578,-208 1578,-260 1692,-260 1692,-208 1578,-208"/>
</g>
<!-- AppComponent -->
<g id="node1" class="node">
<title>AppComponent</title>
<polygon fill="#ffffb3" stroke="black" points="1545.94,-122 1440.06,-122 1440.06,-86 1545.94,-86 1545.94,-122"/>
<text text-anchor="middle" x="1493" y="-99.8" font-family="Times,serif" font-size="14.00">AppComponent</text>
</g>
<!-- AppModule -->
<g id="node8" class="node">
<title>AppModule</title>
<polygon fill="#8dd3c7" stroke="black" points="853.66,-187 850.66,-191 829.66,-191 826.66,-187 770.34,-187 770.34,-151 853.66,-151 853.66,-187"/>
<text text-anchor="middle" x="812" y="-164.8" font-family="Times,serif" font-size="14.00">AppModule</text>
</g>
<!-- AppComponent&#45;&gt;AppModule -->
<g id="edge1" class="edge">
<title>AppComponent&#45;&gt;AppModule</title>
<path fill="none" stroke="black" d="M1493,-122.01C1493,-144.49 1493,-180 1493,-180 1493,-180 863.83,-180 863.83,-180"/>
<polygon fill="black" stroke="black" points="863.83,-176.5 853.83,-180 863.83,-183.5 863.83,-176.5"/>
</g>
<!-- CarritoComponent -->
<g id="node2" class="node">
<title>CarritoComponent</title>
<polygon fill="#ffffb3" stroke="black" points="1422.49,-122 1301.51,-122 1301.51,-86 1422.49,-86 1422.49,-122"/>
<text text-anchor="middle" x="1362" y="-99.8" font-family="Times,serif" font-size="14.00">CarritoComponent</text>
</g>
<!-- CarritoComponent&#45;&gt;AppModule -->
<g id="edge2" class="edge">
<title>CarritoComponent&#45;&gt;AppModule</title>
<path fill="none" stroke="black" d="M1362,-122.13C1362,-142.57 1362,-173 1362,-173 1362,-173 863.79,-173 863.79,-173"/>
<polygon fill="black" stroke="black" points="863.79,-169.5 853.79,-173 863.79,-176.5 863.79,-169.5"/>
</g>
<!-- CarruselComponent -->
<g id="node3" class="node">
<title>CarruselComponent</title>
<polygon fill="#ffffb3" stroke="black" points="1283.25,-122 1154.75,-122 1154.75,-86 1283.25,-86 1283.25,-122"/>
<text text-anchor="middle" x="1219" y="-99.8" font-family="Times,serif" font-size="14.00">CarruselComponent</text>
</g>
<!-- CarruselComponent&#45;&gt;AppModule -->
<g id="edge3" class="edge">
<title>CarruselComponent&#45;&gt;AppModule</title>
<path fill="none" stroke="black" d="M1219,-122.27C1219,-140.56 1219,-166 1219,-166 1219,-166 864.02,-166 864.02,-166"/>
<polygon fill="black" stroke="black" points="864.02,-162.5 854.02,-166 864.02,-169.5 864.02,-162.5"/>
</g>
<!-- DetalleProductoComponent -->
<g id="node4" class="node">
<title>DetalleProductoComponent</title>
<polygon fill="#ffffb3" stroke="black" points="1136.3,-122 963.7,-122 963.7,-86 1136.3,-86 1136.3,-122"/>
<text text-anchor="middle" x="1050" y="-99.8" font-family="Times,serif" font-size="14.00">DetalleProductoComponent</text>
</g>
<!-- DetalleProductoComponent&#45;&gt;AppModule -->
<g id="edge4" class="edge">
<title>DetalleProductoComponent&#45;&gt;AppModule</title>
<path fill="none" stroke="black" d="M1050,-122.01C1050,-138.05 1050,-159 1050,-159 1050,-159 863.73,-159 863.73,-159"/>
<polygon fill="black" stroke="black" points="863.73,-155.5 853.73,-159 863.73,-162.5 863.73,-155.5"/>
</g>
<!-- HeaderComponent -->
<g id="node5" class="node">
<title>HeaderComponent</title>
<polygon fill="#ffffb3" stroke="black" points="945.74,-122 824.26,-122 824.26,-86 945.74,-86 945.74,-122"/>
<text text-anchor="middle" x="885" y="-99.8" font-family="Times,serif" font-size="14.00">HeaderComponent</text>
</g>
<!-- HeaderComponent&#45;&gt;AppModule -->
<g id="edge5" class="edge">
<title>HeaderComponent&#45;&gt;AppModule</title>
<path fill="none" stroke="black" d="M838.98,-122.11C838.98,-122.11 838.98,-140.99 838.98,-140.99"/>
<polygon fill="black" stroke="black" points="835.48,-140.99 838.98,-150.99 842.48,-140.99 835.48,-140.99"/>
</g>
<!-- ProductoComponent -->
<g id="node6" class="node">
<title>ProductoComponent</title>
<polygon fill="#ffffb3" stroke="black" points="805.88,-122 674.12,-122 674.12,-86 805.88,-86 805.88,-122"/>
<text text-anchor="middle" x="740" y="-99.8" font-family="Times,serif" font-size="14.00">ProductoComponent</text>
</g>
<!-- ProductoComponent&#45;&gt;AppModule -->
<g id="edge6" class="edge">
<title>ProductoComponent&#45;&gt;AppModule</title>
<path fill="none" stroke="black" d="M788.06,-122.11C788.06,-122.11 788.06,-140.99 788.06,-140.99"/>
<polygon fill="black" stroke="black" points="784.56,-140.99 788.06,-150.99 791.56,-140.99 784.56,-140.99"/>
</g>
<!-- ProductosComponent -->
<g id="node7" class="node">
<title>ProductosComponent</title>
<polygon fill="#ffffb3" stroke="black" points="655.83,-122 518.17,-122 518.17,-86 655.83,-86 655.83,-122"/>
<text text-anchor="middle" x="587" y="-99.8" font-family="Times,serif" font-size="14.00">ProductosComponent</text>
</g>
<!-- ProductosComponent&#45;&gt;AppModule -->
<g id="edge7" class="edge">
<title>ProductosComponent&#45;&gt;AppModule</title>
<path fill="none" stroke="black" d="M587,-122.01C587,-138.05 587,-159 587,-159 587,-159 760.21,-159 760.21,-159"/>
<polygon fill="black" stroke="black" points="760.21,-162.5 770.21,-159 760.21,-155.5 760.21,-162.5"/>
</g>
<!-- AppComponent  -->
<g id="node10" class="node">
<title>AppComponent </title>
<polygon fill="#80b1d3" stroke="black" points="866.44,-252 757.56,-252 757.56,-216 866.44,-216 866.44,-252"/>
<text text-anchor="middle" x="812" y="-229.8" font-family="Times,serif" font-size="14.00">AppComponent </text>
</g>
<!-- AppModule&#45;&gt;AppComponent  -->
<g id="edge9" class="edge">
<title>AppModule&#45;&gt;AppComponent </title>
<path fill="none" stroke="black" stroke-dasharray="1,5" d="M812,-187.11C812,-187.11 812,-205.99 812,-205.99"/>
<polygon fill="black" stroke="black" points="808.5,-205.99 812,-215.99 815.5,-205.99 808.5,-205.99"/>
</g>
<!-- AppRoutingModule -->
<g id="node9" class="node">
<title>AppRoutingModule</title>
<polygon fill="#8dd3c7" stroke="black" points="494.27,-122 491.27,-126 470.27,-126 467.27,-122 365.73,-122 365.73,-86 494.27,-86 494.27,-122"/>
<text text-anchor="middle" x="430" y="-99.8" font-family="Times,serif" font-size="14.00">AppRoutingModule</text>
</g>
<!-- AppRoutingModule&#45;&gt;AppModule -->
<g id="edge8" class="edge">
<title>AppRoutingModule&#45;&gt;AppModule</title>
<path fill="none" stroke="black" d="M430,-122.27C430,-140.56 430,-166 430,-166 430,-166 760.03,-166 760.03,-166"/>
<polygon fill="black" stroke="black" points="760.03,-169.5 770.03,-166 760.03,-162.5 760.03,-169.5"/>
</g>
<!-- CargandoService -->
<g id="node11" class="node">
<title>CargandoService</title>
<ellipse fill="#fdb462" stroke="black" cx="264" cy="-104" rx="77.57" ry="18"/>
<text text-anchor="middle" x="264" y="-99.8" font-family="Times,serif" font-size="14.00">CargandoService</text>
</g>
<!-- CargandoService&#45;&gt;AppModule -->
<g id="edge10" class="edge">
<title>CargandoService&#45;&gt;AppModule</title>
<path fill="none" stroke="black" d="M264,-122.13C264,-142.57 264,-173 264,-173 264,-173 759.91,-173 759.91,-173"/>
<polygon fill="black" stroke="black" points="759.91,-176.5 769.91,-173 759.91,-169.5 759.91,-176.5"/>
</g>
<!-- LoadingService -->
<g id="node12" class="node">
<title>LoadingService</title>
<ellipse fill="#fdb462" stroke="black" cx="96" cy="-104" rx="72.35" ry="18"/>
<text text-anchor="middle" x="96" y="-99.8" font-family="Times,serif" font-size="14.00">LoadingService</text>
</g>
<!-- LoadingService&#45;&gt;AppModule -->
<g id="edge11" class="edge">
<title>LoadingService&#45;&gt;AppModule</title>
<path fill="none" stroke="black" d="M96,-122.01C96,-144.49 96,-180 96,-180 96,-180 760.15,-180 760.15,-180"/>
<polygon fill="black" stroke="black" points="760.15,-183.5 770.15,-180 760.15,-176.5 760.15,-183.5"/>
</g>
<!-- BuscadorPipe -->
<g id="node13" class="node">
<title>BuscadorPipe</title>
<polygon fill="#ffffb3" stroke="black" points="1681.76,-122 1588.24,-122 1588.24,-86 1681.76,-86 1681.76,-122"/>
<text text-anchor="middle" x="1635" y="-99.8" font-family="Times,serif" font-size="14.00">BuscadorPipe</text>
</g>
<!-- PipesModule -->
<g id="node14" class="node">
<title>PipesModule</title>
<polygon fill="#8dd3c7" stroke="black" points="1679.88,-187 1676.88,-191 1655.88,-191 1652.88,-187 1590.12,-187 1590.12,-151 1679.88,-151 1679.88,-187"/>
<text text-anchor="middle" x="1635" y="-164.8" font-family="Times,serif" font-size="14.00">PipesModule</text>
</g>
<!-- BuscadorPipe&#45;&gt;PipesModule -->
<g id="edge12" class="edge">
<title>BuscadorPipe&#45;&gt;PipesModule</title>
<path fill="none" stroke="black" d="M1635,-122.11C1635,-122.11 1635,-140.99 1635,-140.99"/>
<polygon fill="black" stroke="black" points="1631.5,-140.99 1635,-150.99 1638.5,-140.99 1631.5,-140.99"/>
</g>
<!-- BuscadorPipe  -->
<g id="node15" class="node">
<title>BuscadorPipe </title>
<polygon fill="#fb8072" stroke="black" points="1683.76,-252 1586.24,-252 1586.24,-216 1683.76,-216 1683.76,-252"/>
<text text-anchor="middle" x="1635" y="-229.8" font-family="Times,serif" font-size="14.00">BuscadorPipe </text>
</g>
<!-- PipesModule&#45;&gt;BuscadorPipe  -->
<g id="edge13" class="edge">
<title>PipesModule&#45;&gt;BuscadorPipe </title>
<path fill="none" stroke="black" stroke-dasharray="5,2" d="M1635,-187.11C1635,-187.11 1635,-205.99 1635,-205.99"/>
<polygon fill="black" stroke="black" points="1631.5,-205.99 1635,-215.99 1638.5,-205.99 1631.5,-205.99"/>
</g>
</g>
</svg>
